<svg id="check-circle" xmlns="http://www.w3.org/2000/svg" width="172.499" height="160.169" viewBox="0 0 172.499 160.169">
  <path id="Caminho_473" data-name="Caminho 473" d="M134.061,2.035a6.16,6.16,0,0,1,0,8.723L47.817,97a6.16,6.16,0,0,1-8.723,0L2.132,60.041a6.168,6.168,0,0,1,8.723-8.723l32.6,32.613,81.883-81.9a6.16,6.16,0,0,1,8.723,0Z" transform="translate(36.628 12.096)" fill-rule="evenodd"/>
  <path id="Caminho_474" data-name="Caminho 474" d="M80.26,12.506A67.764,67.764,0,1,0,148.023,80.27a6.16,6.16,0,0,1,12.321,0A80.084,80.084,0,1,1,120.3,10.9a6.16,6.16,0,1,1-6.16,10.657A67.422,67.422,0,0,0,80.26,12.506Z" transform="translate(-0.175 -0.175)" fill-rule="evenodd"/>
</svg>
