<svg xmlns="http://www.w3.org/2000/svg" width="274.01" height="35.699" viewBox="0 0 274.01 35.699">
  <g id="Grupo_127" data-name="Grupo 127" transform="translate(3346 -3056.284)">
    <path id="Caminho_64" data-name="Caminho 64" d="M73.833,90.564V71.6H66.4V67.378H86.372V71.6H78.9v18.96Z" transform="translate(-3372.469 2995.585)" fill="#1a1a1a"/>
    <path id="Caminho_65" data-name="Caminho 65" d="M106.6,94.285a10.972,10.972,0,0,1-4.935-1,6.541,6.541,0,0,1-3.008-3.059,11.859,11.859,0,0,1-1.014-5.239,11.841,11.841,0,0,1,1.014-5.255,6.58,6.58,0,0,1,2.991-3.042,10.694,10.694,0,0,1,4.85-1,9.83,9.83,0,0,1,4.563.963,6.22,6.22,0,0,1,2.805,2.974,12.251,12.251,0,0,1,.947,5.189v1.217h-12.4a8.24,8.24,0,0,0,.49,2.636,3.084,3.084,0,0,0,1.318,1.605,4.692,4.692,0,0,0,2.383.524,4.979,4.979,0,0,0,1.47-.2,3.137,3.137,0,0,0,1.132-.608,2.831,2.831,0,0,0,.744-1.014,3.382,3.382,0,0,0,.27-1.386h4.6a6.647,6.647,0,0,1-.609,2.941,5.736,5.736,0,0,1-1.69,2.078,7.568,7.568,0,0,1-2.585,1.251,12.3,12.3,0,0,1-3.329.422m-4.124-11.221h7.5a5.44,5.44,0,0,0-.254-1.757,3.351,3.351,0,0,0-.693-1.217,2.61,2.61,0,0,0-1.064-.693,4.224,4.224,0,0,0-1.4-.219,4.857,4.857,0,0,0-2.146.422,2.9,2.9,0,0,0-1.318,1.285,6.4,6.4,0,0,0-.625,2.18" transform="translate(-3384.926 2992.27)" fill="#1a1a1a"/>
    <path id="Caminho_66" data-name="Caminho 66" d="M138.143,94.263a10.293,10.293,0,0,1-4.766-1,6.521,6.521,0,0,1-2.923-3.075,12.051,12.051,0,0,1-1-5.222,12.007,12.007,0,0,1,1-5.255,6.617,6.617,0,0,1,2.94-3.059,10.17,10.17,0,0,1,4.749-1.014,11.5,11.5,0,0,1,3.3.44,7.021,7.021,0,0,1,2.552,1.352,5.841,5.841,0,0,1,1.639,2.247,8.168,8.168,0,0,1,.557,3.16h-4.7a4.634,4.634,0,0,0-.372-1.994,2.563,2.563,0,0,0-1.132-1.183,4.026,4.026,0,0,0-1.909-.406,3.674,3.674,0,0,0-2.2.609,3.542,3.542,0,0,0-1.25,1.791,9.182,9.182,0,0,0-.405,2.941v.778a8.693,8.693,0,0,0,.422,2.906,3.447,3.447,0,0,0,1.3,1.775,4.73,4.73,0,0,0,4.208.186,2.708,2.708,0,0,0,1.166-1.217,4.342,4.342,0,0,0,.406-1.96h4.461a8.01,8.01,0,0,1-.557,3.076,5.9,5.9,0,0,1-1.622,2.264,7.233,7.233,0,0,1-2.552,1.386,10.9,10.9,0,0,1-3.312.473" transform="translate(-3397.607 2992.292)" fill="#1a1a1a"/>
    <path id="Caminho_67" data-name="Caminho 67" d="M162.11,89.735V65.3h4.7v8.618h.236a6,6,0,0,1,1.369-1.233,6.852,6.852,0,0,1,1.792-.828,7.436,7.436,0,0,1,2.179-.3,6.946,6.946,0,0,1,3.076.642,4.51,4.51,0,0,1,2.045,2.028,7.784,7.784,0,0,1,.727,3.617v11.9h-4.7V78.581a4.452,4.452,0,0,0-.2-1.436,2.531,2.531,0,0,0-.591-.981,2.237,2.237,0,0,0-.963-.557,4.579,4.579,0,0,0-1.284-.169,3.6,3.6,0,0,0-1.892.508,3.538,3.538,0,0,0-1.318,1.386,4.207,4.207,0,0,0-.473,2.028V89.735Z" transform="translate(-3410.624 2996.415)" fill="#1a1a1a"/>
    <path id="Caminho_68" data-name="Caminho 68" d="M194.932,93.879V76.1h3.887l.372,2.433h.237a6.434,6.434,0,0,1,3.413-2.5,7.91,7.91,0,0,1,2.366-.338,6.946,6.946,0,0,1,3.076.642,4.51,4.51,0,0,1,2.045,2.028,7.784,7.784,0,0,1,.727,3.617v11.9h-4.7V82.726a4.452,4.452,0,0,0-.2-1.436,2.531,2.531,0,0,0-.591-.981,2.238,2.238,0,0,0-.963-.557,4.578,4.578,0,0,0-1.285-.169,3.6,3.6,0,0,0-1.892.508,3.538,3.538,0,0,0-1.318,1.386,4.208,4.208,0,0,0-.473,2.028V93.879Z" transform="translate(-3423.708 2992.27)" fill="#1a1a1a"/>
    <path id="Caminho_69" data-name="Caminho 69" d="M227.753,65.3h4.7v4.056h-4.7Zm0,6.658h4.7V89.735h-4.7Z" transform="translate(-3436.792 2996.415)" fill="#1a1a1a"/>
    <path id="Caminho_70" data-name="Caminho 70" d="M248.973,94.263a10.293,10.293,0,0,1-4.766-1,6.521,6.521,0,0,1-2.923-3.075,12.051,12.051,0,0,1-1-5.222,12.007,12.007,0,0,1,1-5.255,6.617,6.617,0,0,1,2.94-3.059,10.17,10.17,0,0,1,4.749-1.014,11.5,11.5,0,0,1,3.3.44,7.021,7.021,0,0,1,2.552,1.352,5.841,5.841,0,0,1,1.639,2.247,8.168,8.168,0,0,1,.557,3.16h-4.7a4.634,4.634,0,0,0-.372-1.994,2.563,2.563,0,0,0-1.132-1.183,4.026,4.026,0,0,0-1.909-.406,3.674,3.674,0,0,0-2.2.609,3.541,3.541,0,0,0-1.25,1.791,9.182,9.182,0,0,0-.405,2.941v.778a8.693,8.693,0,0,0,.422,2.906,3.447,3.447,0,0,0,1.3,1.775,4.73,4.73,0,0,0,4.208.186,2.709,2.709,0,0,0,1.166-1.217,4.342,4.342,0,0,0,.406-1.96h4.461a8.01,8.01,0,0,1-.557,3.076,5.9,5.9,0,0,1-1.622,2.264,7.233,7.233,0,0,1-2.552,1.386,10.9,10.9,0,0,1-3.312.473" transform="translate(-3441.788 2992.292)" fill="#1a1a1a"/>
    <path id="Caminho_71" data-name="Caminho 71" d="M276.943,94.286a9.458,9.458,0,0,1-1.876-.2,5.954,5.954,0,0,1-1.876-.726,3.99,3.99,0,0,1-1.437-1.521,5.188,5.188,0,0,1-.557-2.552,5.042,5.042,0,0,1,3.126-4.985,12.42,12.42,0,0,1,3.6-.963,36.33,36.33,0,0,1,4.63-.271V81.747a3.327,3.327,0,0,0-.253-1.352,1.91,1.91,0,0,0-.879-.912,3.7,3.7,0,0,0-1.741-.339,5.052,5.052,0,0,0-1.808.271,2.032,2.032,0,0,0-.98.693,1.617,1.617,0,0,0-.287.93v.405h-4.563a1.657,1.657,0,0,1-.034-.321v-.388a4.055,4.055,0,0,1,.947-2.687,5.973,5.973,0,0,1,2.67-1.741,12.086,12.086,0,0,1,4.022-.608,11.632,11.632,0,0,1,4.14.642,5.467,5.467,0,0,1,2.569,1.893,5.266,5.266,0,0,1,.9,3.143v8.077a1.081,1.081,0,0,0,.355.9,1.228,1.228,0,0,0,.794.287h1.116v3.075a5.736,5.736,0,0,1-1.048.355,6.92,6.92,0,0,1-1.723.186,4.907,4.907,0,0,1-1.74-.287,3.4,3.4,0,0,1-1.268-.811,2.874,2.874,0,0,1-.71-1.267h-.236a6.04,6.04,0,0,1-1.4,1.25,6.825,6.825,0,0,1-1.926.845,9.442,9.442,0,0,1-2.518.3m1.588-3.549a4.655,4.655,0,0,0,1.69-.287,3.674,3.674,0,0,0,1.251-.778,3.433,3.433,0,0,0,.794-1.2,4.028,4.028,0,0,0,.287-1.521v-.98a20.257,20.257,0,0,0-3.38.254,5.727,5.727,0,0,0-2.349.862,1.954,1.954,0,0,0-.862,1.69,1.79,1.79,0,0,0,.3,1.048,1.915,1.915,0,0,0,.879.676,3.628,3.628,0,0,0,1.386.237" transform="translate(-3454.11 2992.27)" fill="#1a1a1a"/>
    <rect id="Retângulo_86" data-name="Retângulo 86" width="4.698" height="24.436" transform="translate(-3162.871 3061.714)" fill="#1a1a1a"/>
    <path id="Caminho_72" data-name="Caminho 72" d="M327.7,90.7a19.142,19.142,0,0,1-3.617-.338,9.454,9.454,0,0,1-3.109-1.149,6.019,6.019,0,0,1-2.129-2.129,6.357,6.357,0,0,1-.778-3.279v-.321a1.665,1.665,0,0,1,.034-.321h2.67c0,.09-.005.215-.017.372s-.017.293-.017.406a3.579,3.579,0,0,0,.9,2.484,5.374,5.374,0,0,0,2.433,1.487,11.389,11.389,0,0,0,3.464.49q.641,0,1.538-.085a10.762,10.762,0,0,0,1.825-.338,7.008,7.008,0,0,0,1.707-.71,3.87,3.87,0,0,0,1.268-1.183,3.161,3.161,0,0,0,.49-1.808,3.114,3.114,0,0,0-.676-2.062,5.172,5.172,0,0,0-1.775-1.335,16.21,16.21,0,0,0-2.518-.929q-1.419-.406-2.907-.778t-2.89-.845a11.527,11.527,0,0,1-2.518-1.183,5.569,5.569,0,0,1-1.775-1.775,4.888,4.888,0,0,1-.659-2.62,5.576,5.576,0,0,1,.541-2.467,5.024,5.024,0,0,1,1.656-1.909,8.483,8.483,0,0,1,2.839-1.234,16.74,16.74,0,0,1,4.089-.44,14.376,14.376,0,0,1,3.347.372,8.364,8.364,0,0,1,2.737,1.166,5.668,5.668,0,0,1,1.843,1.994,5.925,5.925,0,0,1,.659,2.89v.405h-2.636v-.574a3.04,3.04,0,0,0-.778-2.113,5.22,5.22,0,0,0-2.078-1.352A8.357,8.357,0,0,0,327.9,69a12.648,12.648,0,0,0-3.718.456,4.741,4.741,0,0,0-2.163,1.25,2.6,2.6,0,0,0-.71,1.775,2.77,2.77,0,0,0,.676,1.91,5.1,5.1,0,0,0,1.792,1.25,18.49,18.49,0,0,0,2.518.879q1.4.389,2.889.761t2.89.862a12.064,12.064,0,0,1,2.535,1.217A5.607,5.607,0,0,1,336.4,81.17a5.044,5.044,0,0,1,.659,2.67,6.142,6.142,0,0,1-1.2,3.921,6.882,6.882,0,0,1-3.295,2.23,15.172,15.172,0,0,1-4.867.71" transform="translate(-3472.795 2995.854)" fill="#1a1a1a"/>
    <path id="Caminho_73" data-name="Caminho 73" d="M355.78,89.735V65.3h2.434v8.956h.236a6.868,6.868,0,0,1,1.622-1.571A6.209,6.209,0,0,1,362,71.822a9.037,9.037,0,0,1,2.265-.271,7.283,7.283,0,0,1,2.957.558,4.15,4.15,0,0,1,1.977,1.808,6.929,6.929,0,0,1,.71,3.414v12.4h-2.434V77.567a5.145,5.145,0,0,0-.3-1.927,2.782,2.782,0,0,0-.844-1.165,3.224,3.224,0,0,0-1.268-.592,7.109,7.109,0,0,0-1.606-.169,5.558,5.558,0,0,0-2.552.609,4.767,4.767,0,0,0-1.944,1.841,5.838,5.838,0,0,0-.743,3.059V89.735Z" transform="translate(-3487.828 2996.415)" fill="#1a1a1a"/>
    <path id="Caminho_74" data-name="Caminho 74" d="M389.492,94.285a8.465,8.465,0,0,1-2.061-.253,5.383,5.383,0,0,1-1.808-.811,3.953,3.953,0,0,1-1.267-1.5,5.167,5.167,0,0,1-.474-2.332,4.771,4.771,0,0,1,.9-2.991,5.869,5.869,0,0,1,2.518-1.825,14.23,14.23,0,0,1,3.836-.9,45.521,45.521,0,0,1,4.816-.236V81.171a4.015,4.015,0,0,0-.388-1.842,2.626,2.626,0,0,0-1.352-1.183,6.979,6.979,0,0,0-2.721-.423,6.65,6.65,0,0,0-2.67.44,2.8,2.8,0,0,0-1.369,1.132,3.089,3.089,0,0,0-.389,1.538v.541h-2.332a1.736,1.736,0,0,1-.034-.338v-.405a4.254,4.254,0,0,1,.879-2.772,5.264,5.264,0,0,1,2.5-1.622,11.728,11.728,0,0,1,3.718-.541,9.072,9.072,0,0,1,3.582.625A5,5,0,0,1,397.6,78.1a4.832,4.832,0,0,1,.777,2.772V91.074a1.251,1.251,0,0,0,.254.9.935.935,0,0,0,.693.253h1.419v1.555a7.911,7.911,0,0,1-1.064.338,4.958,4.958,0,0,1-1.166.135,2.379,2.379,0,0,1-1.4-.372,1.993,1.993,0,0,1-.743-1.048,6.524,6.524,0,0,1-.287-1.487h-.237a6.062,6.062,0,0,1-1.639,1.571,8.21,8.21,0,0,1-2.18,1.014,8.792,8.792,0,0,1-2.535.354M390,92.223a6.409,6.409,0,0,0,2.163-.372,6.681,6.681,0,0,0,1.892-1.031,5.383,5.383,0,0,0,1.369-1.571,4.006,4.006,0,0,0,.524-2.028V85.4a34.176,34.176,0,0,0-5.256.337,6.862,6.862,0,0,0-3.177,1.183,3.212,3.212,0,0,0-.608,4.039,2.609,2.609,0,0,0,1.267.964,5.171,5.171,0,0,0,1.825.3" transform="translate(-3499.031 2992.27)" fill="#1a1a1a"/>
    <path id="Caminho_75" data-name="Caminho 75" d="M415.129,93.879V76.1h1.96l.2,2.974h.237a6.574,6.574,0,0,1,.71-1.588,3.891,3.891,0,0,1,1.284-1.285,3.828,3.828,0,0,1,2.061-.507,4.38,4.38,0,0,1,.879.084,6.05,6.05,0,0,1,.609.152v2.231h-1.048a4.5,4.5,0,0,0-2.028.422,3.66,3.66,0,0,0-1.385,1.2,5.432,5.432,0,0,0-.794,1.775,8.437,8.437,0,0,0-.253,2.078V93.879Z" transform="translate(-3511.487 2992.27)" fill="#1a1a1a"/>
    <path id="Caminho_76" data-name="Caminho 76" d="M437.56,94.285a8.576,8.576,0,0,1-4.292-1,6.326,6.326,0,0,1-2.67-3.059,13,13,0,0,1-.913-5.238,12.979,12.979,0,0,1,.913-5.256,6.288,6.288,0,0,1,2.7-3.042,9.076,9.076,0,0,1,4.461-1,8.079,8.079,0,0,1,4.141.98,6.229,6.229,0,0,1,2.534,2.839,10.808,10.808,0,0,1,.862,4.563v1.554H432.22a9.712,9.712,0,0,0,.642,3.82A4.263,4.263,0,0,0,434.7,91.6a6.072,6.072,0,0,0,2.958.659,6.777,6.777,0,0,0,2.247-.338,4.376,4.376,0,0,0,1.589-.929,4.06,4.06,0,0,0,.964-1.4,4.377,4.377,0,0,0,.337-1.69h2.366a6.338,6.338,0,0,1-.49,2.484,5.967,5.967,0,0,1-1.42,2.045,6.386,6.386,0,0,1-2.348,1.369,10.275,10.275,0,0,1-3.347.49M432.22,83.706h10.544a8.787,8.787,0,0,0-.388-2.822,4.8,4.8,0,0,0-1.065-1.826,3.9,3.9,0,0,0-1.605-1,6.645,6.645,0,0,0-2.079-.3,6,6,0,0,0-2.838.625,4.106,4.106,0,0,0-1.808,1.944,9.355,9.355,0,0,0-.76,3.38" transform="translate(-3517.29 2992.27)" fill="#1a1a1a"/>
    <path id="Caminho_77" data-name="Caminho 77" d="M17.85,56.271A17.85,17.85,0,1,0,35.7,74.121V56.271Z" transform="translate(-3346 3000.013)" fill="#ff4500"/>
    <path id="Caminho_78" data-name="Caminho 78" d="M24.907,69.769c-1.82,0-3.3,1.164-3.3,2.6a24.021,24.021,0,0,0,.257,3.186,4.65,4.65,0,0,0,2.152,2.8h0a1.657,1.657,0,0,0,1.77,0h0a4.65,4.65,0,0,0,2.152-2.8,24.022,24.022,0,0,0,.257-3.186c0-1.436-1.476-2.6-3.3-2.6" transform="translate(-3354.615 2994.633)" fill="#fff"/>
    <path id="Caminho_79" data-name="Caminho 79" d="M21.489,94.5A20.72,20.72,0,0,0,29.5,92.913a.726.726,0,0,0,.438-.687,10.163,10.163,0,0,0-1.049-4.955c-.823-1.171-3.979-1.9-5.365-1.945-.428-.014-1.445-.009-2.039,0s-1.61-.01-2.039,0c-1.386.046-4.541.773-5.365,1.945a10.163,10.163,0,0,0-1.049,4.955.726.726,0,0,0,.438.687A20.72,20.72,0,0,0,21.489,94.5" transform="translate(-3351.197 2988.435)" fill="#fff"/>
    <path id="Caminho_80" data-name="Caminho 80" d="M43.955,75.736a.364.364,0,0,0,.31-.361V73.57a.364.364,0,0,0-.31-.361c-.732-.105-1.468-.176-2.2-.218-.043-.737-.113-1.473-.218-2.2a.364.364,0,0,0-.361-.31H39.365a.364.364,0,0,0-.36.31c-.105.732-.176,1.468-.219,2.2-.737.043-1.472.113-2.2.218a.364.364,0,0,0-.31.361v1.805a.364.364,0,0,0,.31.361c.732.105,1.468.176,2.2.218.043.737.114,1.473.219,2.2a.364.364,0,0,0,.36.311h1.806a.365.365,0,0,0,.361-.311c.105-.732.176-1.467.218-2.2.737-.042,1.473-.113,2.2-.218" transform="translate(-3360.459 2994.351)" fill="#fff"/>
  </g>
</svg>
