<svg xmlns="http://www.w3.org/2000/svg" width="813.446" height="610.581" viewBox="0 0 813.446 610.581">
  <g id="Componente_10_1" data-name="Componente 10 – 1" transform="translate(0 0)">
    <g id="undraw_meeting_re_i53h" transform="translate(0 157.469)">
      <circle id="Elipse_9" data-name="Elipse 9" cx="6.467" cy="6.467" r="6.467" transform="translate(400.224 0)" fill="#ff4500"/>
      <circle id="Elipse_10" data-name="Elipse 10" cx="6.467" cy="6.467" r="6.467" transform="translate(400.224 25.773)" fill="#ff4500"/>
      <circle id="Elipse_11" data-name="Elipse 11" cx="6.467" cy="6.467" r="6.467" transform="translate(427.224 0)" fill="#ff4500"/>
      <circle id="Elipse_12" data-name="Elipse 12" cx="6.467" cy="6.467" r="6.467" transform="translate(427.224 25.773)" fill="#ff4500"/>
      <circle id="Elipse_13" data-name="Elipse 13" cx="6.467" cy="6.467" r="6.467" transform="translate(454.224 0)" fill="#ff4500"/>
      <circle id="Elipse_14" data-name="Elipse 14" cx="6.467" cy="6.467" r="6.467" transform="translate(454.224 25.773)" fill="#ff4500"/>
      <circle id="Elipse_15" data-name="Elipse 15" cx="6.467" cy="6.467" r="6.467" transform="translate(454.224 51.547)" fill="#ff4500"/>
      <circle id="Elipse_16" data-name="Elipse 16" cx="6.467" cy="6.467" r="6.467" transform="translate(454.224 77.32)" fill="#ff4500"/>
      <circle id="Elipse_17" data-name="Elipse 17" cx="6.467" cy="6.467" r="6.467" transform="translate(481.224 0)" fill="#ff4500"/>
      <circle id="Elipse_18" data-name="Elipse 18" cx="6.467" cy="6.467" r="6.467" transform="translate(481.224 25.773)" fill="#ff4500"/>
      <circle id="Elipse_19" data-name="Elipse 19" cx="6.467" cy="6.467" r="6.467" transform="translate(481.224 51.547)" fill="#ff4500"/>
      <circle id="Elipse_20" data-name="Elipse 20" cx="6.467" cy="6.467" r="6.467" transform="translate(481.224 77.32)" fill="#ff4500"/>
      <circle id="Elipse_21" data-name="Elipse 21" cx="6.467" cy="6.467" r="6.467" transform="translate(508.224 0)" fill="#ff4500"/>
      <circle id="Elipse_22" data-name="Elipse 22" cx="6.467" cy="6.467" r="6.467" transform="translate(508.224 25.773)" fill="#ff4500"/>
      <circle id="Elipse_23" data-name="Elipse 23" cx="6.467" cy="6.467" r="6.467" transform="translate(535.224 0)" fill="#ff4500"/>
      <circle id="Elipse_24" data-name="Elipse 24" cx="6.467" cy="6.467" r="6.467" transform="translate(535.224 25.773)" fill="#ff4500"/>
      <path id="Caminho_664" data-name="Caminho 664" d="M945.2,564.7H897.191c0,1.38-49.48,2.5-49.48,2.5a12.861,12.861,0,0,0-2.11,2,12.41,12.41,0,0,0-2.9,8v2a12.5,12.5,0,0,0,12.5,12.5h90a12.511,12.511,0,0,0,12.5-12.5v-2a12.517,12.517,0,0,0-12.5-12.5Z" transform="translate(-206.086 -223.444)" fill="#3f3d56"/>
      <rect id="Retângulo_136" data-name="Retângulo 136" width="13" height="84" transform="translate(688.109 367.762)" fill="#3f3d56"/>
      <path id="Caminho_665" data-name="Caminho 665" d="M944.2,674.749c0,1.4-19.7.543-44,.543s-44,.861-44-.543,19.7-12.543,44-12.543S944.2,673.344,944.2,674.749Z" transform="translate(-206.086 -223.444)" fill="#3f3d56"/>
      <path id="Caminho_666" data-name="Caminho 666" d="M629.1,440.257H616.84l-5.833-47.288H629.1Z" fill="#ffb8b8"/>
      <path id="Caminho_667" data-name="Caminho 667" d="M608.083,436.753h23.644V451.64H593.2A14.887,14.887,0,0,1,608.083,436.753Z" fill="#2f2e41"/>
      <path id="Caminho_668" data-name="Caminho 668" d="M609.962,433.414l-11.7-3.671,8.592-46.865,17.264,5.418Z" fill="#ffb8b8"/>
      <path id="Caminho_669" data-name="Caminho 669" d="M794.615,648.193h23.644V663.08H779.728A14.887,14.887,0,0,1,794.615,648.193Z" transform="translate(26.879 -432.598) rotate(17.423)" fill="#2f2e41"/>
      <path id="Caminho_670" data-name="Caminho 670" d="M912.367,556.505a37.874,37.874,0,0,0-1.52-7.02l-2.29-2.88-5.96-7.48-.26.01c-.44.02-2.271.12-5.1.34h-.03c-1.75.14-3.89.32-6.32.55-.64.07-1.31.13-2,.2v10.44h12.5a2.5,2.5,0,0,1,2.48,2.18c.01.11.02.21.02.32a2.5,2.5,0,0,1-2.5,2.5h-72.6a28.393,28.393,0,0,0-2.66,2,14.882,14.882,0,0,0-5.25,7.86c-4.24,18.64-11.97,53.4-14.25,63.61a4.538,4.538,0,0,0,1.35,4.28,4.437,4.437,0,0,0,1.47.91l9.02,3.38a4.792,4.792,0,0,0,1.15.27c.05,0,.09.01.14.01a2.626,2.626,0,0,0,.28.01,4.532,4.532,0,0,0,4.21-2.9l7.12-18.68,10.97-28.8,4.34-11.39c5.03,1.18,47.23,10.52,61.36-4.53a16.067,16.067,0,0,0,3.24-5.11,20.8,20.8,0,0,0,1.09-10.08Z" transform="translate(-206.086 -223.444)" fill="#2f2e41"/>
      <path id="Caminho_671" data-name="Caminho 671" d="M924.607,559.225c-.22-.89-.47-1.81-.76-2.74l-8.25-10.36-.26.01c-.521.03-2.99.16-6.78.47-4.3.36-10.31.94-17.06,1.85-.2.02-.41.05-.61.08-.66.09-1.33.18-2,.28v1.85h12.5a2.5,2.5,0,0,1,2.48,2.18c.01.11.02.21.02.32a2.5,2.5,0,0,1-2.5,2.5h-44.18c-1.93.63-3.79,1.29-5.57,2-9.34,3.7-16.33,8.55-17.76,14.86-.48,2.12-1.01,4.45-1.57,6.93-2.08,9.22-4.61,20.51-6.9,30.77v.01c-.47,2.12-.94,4.18-1.39,6.18-1.91,8.6-3.53,15.89-4.39,19.72-.02.11-.04.21-.06.32v.02a4.666,4.666,0,0,0,.28,2.29l.01.01v.01a4.43,4.43,0,0,0,1.3,1.79,4.593,4.593,0,0,0,1.29.75l9.02,3.38a4.579,4.579,0,0,0,1.57.29,4.435,4.435,0,0,0,2.15-.55,4.5,4.5,0,0,0,2.06-2.35l19.42-50.96,3.01-7.91c5.03,1.18,47.23,10.51,61.36-4.53a16.891,16.891,0,0,0,4.48-11.07A29.685,29.685,0,0,0,924.607,559.225Z" transform="translate(-206.086 -223.444)" fill="#2f2e41"/>
      <path id="Caminho_672" data-name="Caminho 672" d="M923.5,471.005c-.16-.19-.33-.38-.51-.56a24.472,24.472,0,0,0-20.97-7.39,79.365,79.365,0,0,0-9.91,1.95,24.981,24.981,0,0,0-11.18,6.27,24.414,24.414,0,0,0-7.41,18.2c.04,1.37.05,2.77.03,4.19,0,.66-.01,1.33-.02,2h9.86a5.318,5.318,0,0,1,1.27.15,5.511,5.511,0,0,1,4.23,5.35v46.52c.67.19,1.34.38,2,.58.21.07.41.13.61.19.23.07.46.14.68.21q3.045.945,5.95,2h3.26a2.5,2.5,0,0,1,2.48,2.18c.68.27,1.34.54,1.99.81,2.31.96,4.5,1.92,6.51,2.85,2.71,1.24,5.12,2.42,7.14,3.45a4.588,4.588,0,0,0,2.05.5,4.4,4.4,0,0,0,2.6-.86,5.528,5.528,0,0,0,.45-.37,4.5,4.5,0,0,0,1.37-3.98,128.092,128.092,0,0,1-.9-23.7c.28-6.65.88-13.47,1.66-20.06.42-3.57.89-7.07,1.38-10.44.47-3.22.97-6.31,1.46-9.23A24.607,24.607,0,0,0,923.5,471.005Z" transform="translate(-206.086 -223.444)" fill="#ff4500"/>
      <path id="Caminho_673" data-name="Caminho 673" d="M882.507,471.825a11.859,11.859,0,0,0-1.58-.55,11.5,11.5,0,0,0-13.54,6.53l-6.87,15.86-.86,2h23.73a5.318,5.318,0,0,1,1.27.15l.8-1.85,3.04-7.02A11.511,11.511,0,0,0,882.507,471.825Z" transform="translate(-206.086 -223.444)" fill="#ff4500"/>
      <circle id="Elipse_25" data-name="Elipse 25" cx="24.561" cy="24.561" r="24.561" transform="translate(673.195 182.681)" fill="#ffb8b8"/>
      <path id="Caminho_674" data-name="Caminho 674" d="M928.117,501.045l-14.02.38-1.02,9.85-.23,2.28-21.96,9.86-2,.9v17.53l2-.57,6.32-1.8h.03l27.84-7.93.32-.09a10.879,10.879,0,0,0,7.86-10.35l.07-11.63.06-8.57Z" transform="translate(-206.086 -223.444)" fill="#ffb8b8"/>
      <path id="Caminho_675" data-name="Caminho 675" d="M932.677,481.565a11.5,11.5,0,1,0-22.96,1.41l1.53,24.96a4.486,4.486,0,0,0,1.83,3.34,4.436,4.436,0,0,0,2.94.87l10.72-.66,3.25-.2a4.385,4.385,0,0,0,3.1-1.51,3.146,3.146,0,0,0,.24-.3,4.469,4.469,0,0,0,.88-2.96Z" transform="translate(-206.086 -223.444)" fill="#ff4500"/>
      <path id="Caminho_676" data-name="Caminho 676" d="M892.177,548.665h-1.29v-.13c-.66.09-1.33.18-2,.28v1.85h9.24Q895.217,549.615,892.177,548.665Zm0,0h-1.29v-.13c-.66.09-1.33.18-2,.28v1.85h9.24Q895.217,549.615,892.177,548.665Zm9.21,0h-10.5v-47.5a7.511,7.511,0,0,0-5.43-7.2,7.05,7.05,0,0,0-2.07-.3h-89a7.509,7.509,0,0,0-7.5,7.5v49a7.5,7.5,0,0,0,7.5,7.5h107a4.5,4.5,0,0,0,4.47-4.01,3.891,3.891,0,0,0,.03-.49,4.507,4.507,0,0,0-4.5-4.5Zm2.5,4.5a2.5,2.5,0,0,1-2.5,2.5h-107a5.5,5.5,0,0,1-5.5-5.5v-49a5.5,5.5,0,0,1,5.5-5.5h89a5.319,5.319,0,0,1,1.27.15,5.511,5.511,0,0,1,4.23,5.35v49.5h12.5a2.5,2.5,0,0,1,2.48,2.18C903.877,552.955,903.887,553.055,903.887,553.165Zm-11.71-4.5h-1.29v-.13c-.66.09-1.33.18-2,.28v1.85h9.24Q895.217,549.615,892.177,548.665Z" transform="translate(-206.086 -223.444)" fill="#3f3d56"/>
      <circle id="Elipse_26" data-name="Elipse 26" cx="6" cy="6" r="6" transform="translate(626.797 296.223)" fill="#ff4500"/>
      <path id="Caminho_677" data-name="Caminho 677" d="M898.6,420.943c-5.7,5.1-13.354,10.566-20.339,6.833-4.587-2.452-6.629-7.828-5.558-12.918,1.926-9.152,9.838-14.1,17.5-18.095,9.959-5.2,20.949-9.729,32.1-8.378s22.047,10.566,21.521,21.787c-.423,9.024-7.792,17.442-5.459,26.169,2.348,8.783,13.008,12.184,22.089,12.631s19.077-.327,26.28,5.219c9.189,7.076,9.042,21.872,2.5,31.449s-17.589,14.966-28.439,19.063c-14.376,5.428-30.177,9.349-45.017,5.359s-27.83-18.227-25.654-33.439c.919-6.425,4.3-12.193,7.562-17.8s6.544-11.462,7.229-17.917c.571-5.379-1.138-11.316-5.1-14.781a4.437,4.437,0,0,1-1.256-5.067Z" transform="translate(-206.086 -223.444)" fill="#2f2e41"/>
      <path id="Caminho_678" data-name="Caminho 678" d="M207.277,676.556H980.571a1.191,1.191,0,0,0,0-2.381H207.277a1.191,1.191,0,1,0,0,2.381Z" transform="translate(-206.086 -223.444)" fill="#3f3d56"/>
      <path id="Caminho_679" data-name="Caminho 679" d="M246.516,577.2v2a12.511,12.511,0,0,0,12.5,12.5h90a12.5,12.5,0,0,0,12.5-12.5v-2a12.41,12.41,0,0,0-2.9-8,12.858,12.858,0,0,0-2.11-2s-49.48-1.12-49.48-2.5h-48.01A12.517,12.517,0,0,0,246.516,577.2Z" transform="translate(-206.086 -223.444)" fill="#3f3d56"/>
      <rect id="Retângulo_137" data-name="Retângulo 137" width="13" height="84" transform="translate(103.935 451.762) rotate(180)" fill="#3f3d56"/>
      <path id="Caminho_680" data-name="Caminho 680" d="M260.021,674.749c0,1.4,19.7.543,44,.543s44,.861,44-.543-19.7-12.543-44-12.543S260.021,673.344,260.021,674.749Z" transform="translate(-206.086 -223.444)" fill="#3f3d56"/>
      <path id="Caminho_681" data-name="Caminho 681" d="M163.53,441.018h12.26l5.832-47.288H163.528Z" fill="#a0616a"/>
      <path id="Caminho_682" data-name="Caminho 682" d="M366.99,660.959h38.531v14.887H381.876a14.887,14.887,0,0,1-14.887-14.887h0Z" transform="translate(566.454 1113.343) rotate(179.997)" fill="#2f2e41"/>
      <path id="Caminho_683" data-name="Caminho 683" d="M182.668,434.176l11.7-3.671-8.592-46.865-17.264,5.418Z" fill="#a0616a"/>
      <path id="Caminho_684" data-name="Caminho 684" d="M386.544,648.955h38.531v14.886H401.43a14.887,14.887,0,0,1-14.887-14.887h0Z" transform="translate(783.451 937.731) rotate(162.577)" fill="#2f2e41"/>
      <path id="Caminho_685" data-name="Caminho 685" d="M380.552,635.855l-22.427-58.871c-5.031,1.182-47.227,10.519-61.359-4.528-4.843-5.157-5.788-12.629-2.808-22.208l8.248-10.364.256.014c3.118.164,76.435,4.273,81.461,26.389,4.238,18.644,11.977,53.405,14.247,63.615a4.516,4.516,0,0,1-2.814,5.184l-9.019,3.382a4.463,4.463,0,0,1-1.572.286,4.513,4.513,0,0,1-4.214-2.9Z" transform="translate(-206.086 -223.444)" fill="#2f2e41"/>
      <path id="Caminho_686" data-name="Caminho 686" d="M367.552,642.855l-22.427-58.871c-5.032,1.182-47.227,10.518-61.359-4.528-4.843-5.157-5.788-12.629-2.808-22.208l8.248-10.364.256.014c3.118.164,76.435,4.273,81.461,26.389,4.238,18.644,11.977,53.405,14.247,63.615a4.516,4.516,0,0,1-2.814,5.184l-9.019,3.382a4.462,4.462,0,0,1-1.572.286,4.513,4.513,0,0,1-4.214-2.9Z" transform="translate(-206.086 -223.444)" fill="#2f2e41"/>
      <path id="Caminho_687" data-name="Caminho 687" d="M347.379,528.637a19.2,19.2,0,0,1-16.485-9.372L323.772,507.2l16.929-9.253,7.188,9.856,48.774-5.139a10.56,10.56,0,0,1,.8-1.234h0a11.016,11.016,0,0,1,7.873-4.314,10.893,10.893,0,0,1,8.493,3.012,11,11,0,0,1-14.254,16.715,10.391,10.391,0,0,1-.823-.7l-46.715,11.911A18.839,18.839,0,0,1,347.379,528.637Z" transform="translate(-206.086 -223.444)" fill="#a0616a"/>
      <path id="Caminho_688" data-name="Caminho 688" d="M280.641,560.356a4.507,4.507,0,0,1-1.819-4.349c2.782-18.343-.419-44.619-3.595-63.433a24.8,24.8,0,0,1,27.559-28.762,79.86,79.86,0,0,1,9.913,1.954h0a24.6,24.6,0,0,1,18.582,24.468c-.475,18.154,3.211,40.806,4.818,49.7a4.519,4.519,0,0,1-.834,3.511,4.392,4.392,0,0,1-3.1,1.75c-17.808,1.817-37.012,10.5-46.875,15.517a4.5,4.5,0,0,1-2.05.5,4.429,4.429,0,0,1-2.606-.858Z" transform="translate(-206.086 -223.444)" fill="#ccc"/>
      <path id="Caminho_689" data-name="Caminho 689" d="M328.712,513.045a4.471,4.471,0,0,1-2.474-2.4l-9.931-22.942a11.5,11.5,0,1,1,21.107-9.136l9.932,22.942A4.506,4.506,0,0,1,345,507.429l-12.848,5.561a4.469,4.469,0,0,1-3.444.055Z" transform="translate(-206.086 -223.444)" fill="#ccc"/>
      <circle id="Elipse_27" data-name="Elipse 27" cx="24.561" cy="24.561" r="24.561" transform="translate(70.312 183.442)" fill="#a0616a"/>
      <path id="Caminho_690" data-name="Caminho 690" d="M286.117,453.268a3.974,3.974,0,0,1-5.69.327,44.426,44.426,0,0,1-12.672-16.549c-3.193-7.611-3.661-16.9-.027-24.033,3.072-6.031,8.587-9.87,14.092-13.007a23,23,0,0,1,6.848-2.894,8.994,8.994,0,0,1,7.154,1.407,7.544,7.544,0,0,1,2.878,7.227,22.354,22.354,0,0,1,9.8-7.357,11.365,11.365,0,0,1,7.554-.506c3.536,1.18,6.153,4.75,7.609,8.586a19.14,19.14,0,0,1,1.255,9.264,11.129,11.129,0,0,1-4.269,7.671c-2.884,1.99-6.6,1.788-9.953.907s-6.609-2.374-10.021-2.79-7.194.486-9.227,3.53c-1.432,2.143-1.769,4.967-2.061,7.658l-1.519,14a18.547,18.547,0,0,1-1.278,5.84A3.251,3.251,0,0,1,286.117,453.268Z" transform="translate(-206.086 -223.444)" fill="#2f2e41"/>
      <path id="Caminho_691" data-name="Caminho 691" d="M374.954,604.538H335.082a4.246,4.246,0,0,1-3.355-1.626,4.318,4.318,0,0,1-.807-3.7,102.328,102.328,0,0,0,0-47.525,4.319,4.319,0,0,1,.807-3.7,4.246,4.246,0,0,1,3.355-1.626h39.873a4.3,4.3,0,0,1,4.237,3.606,167.506,167.506,0,0,1,0,50.975A4.3,4.3,0,0,1,374.954,604.538Z" transform="translate(-206.086 -223.444)" fill="#ccc"/>
      <path id="Caminho_692" data-name="Caminho 692" d="M344.352,568.028v-1.172a3,3,0,0,1,3-3h20.924a3,3,0,0,1,3,3v1.172a3,3,0,0,1-3,3H347.352A3,3,0,0,1,344.352,568.028Z" transform="translate(-206.086 -223.444)" fill="#fff"/>
      <path id="Caminho_693" data-name="Caminho 693" d="M344.352,580.373V579.2a3,3,0,0,1,3-3h20.924a3,3,0,0,1,3,3v1.172a3,3,0,0,1-3,3H347.352a3,3,0,0,1-3-3Z" transform="translate(-206.086 -223.444)" fill="#fff"/>
      <path id="Caminho_694" data-name="Caminho 694" d="M357.214,532.285a4.391,4.391,0,0,1-.821-3.766,104,104,0,0,0,0-48.306,4.392,4.392,0,0,1,.821-3.766,4.318,4.318,0,0,1,3.41-1.652h40.528a4.373,4.373,0,0,1,4.307,3.665,170.239,170.239,0,0,1,0,51.813,4.373,4.373,0,0,1-4.307,3.665H360.625A4.318,4.318,0,0,1,357.214,532.285Z" transform="translate(-206.086 -223.444)" fill="#ff4500"/>
      <path id="Caminho_695" data-name="Caminho 695" d="M393.331,496.617H371.982a3,3,0,0,1-3-3v-1.274a3,3,0,0,1,3-3h21.349a3,3,0,0,1,3,3v1.274A3,3,0,0,1,393.331,496.617Z" transform="translate(-206.086 -223.444)" fill="#fff"/>
      <path id="Caminho_696" data-name="Caminho 696" d="M393.331,509.164H371.982a3,3,0,0,1-3-3V504.89a3,3,0,0,1,3-3h21.349a3,3,0,0,1,3,3v1.274A3,3,0,0,1,393.331,509.164Z" transform="translate(-206.086 -223.444)" fill="#fff"/>
      <path id="Caminho_697" data-name="Caminho 697" d="M338.619,554.283a11.019,11.019,0,0,1-6.534-6.158,10.25,10.25,0,0,1-.359-1.019L279.4,532.213a10.88,10.88,0,0,1-7.861-10.343l-.128-20.2,19.286.516,1.257,12.134L336.7,534.406a10.568,10.568,0,0,1,1.312-.665h0a11.01,11.01,0,1,1,.609,20.542Z" transform="translate(-206.086 -223.444)" fill="#a0616a"/>
      <path id="Caminho_698" data-name="Caminho 698" d="M271.716,510.538a4.471,4.471,0,0,1-1.12-3.258l1.534-24.953a11.5,11.5,0,0,1,22.956,1.412l-1.534,24.952a4.506,4.506,0,0,1-4.767,4.215l-13.974-.859a4.469,4.469,0,0,1-3.1-1.511Z" transform="translate(-206.086 -223.444)" fill="#ccc"/>
      <path id="Caminho_699" data-name="Caminho 699" d="M496.608,376.508h-82a9.01,9.01,0,0,1-9-9v-89a9.01,9.01,0,0,1,9-9h82a9.01,9.01,0,0,1,9,9v89a9.01,9.01,0,0,1-9,9Zm-82-105a7.008,7.008,0,0,0-7,7v89a7.008,7.008,0,0,0,7,7h82a7.008,7.008,0,0,0,7-7v-89a7.008,7.008,0,0,0-7-7Z" transform="translate(-206.086 -223.444)" fill="#3f3d56"/>
      <path id="Caminho_700" data-name="Caminho 700" d="M646.608,376.508h-82a9.01,9.01,0,0,1-9-9v-89a9.01,9.01,0,0,1,9-9h82a9.01,9.01,0,0,1,9,9v89A9.01,9.01,0,0,1,646.608,376.508Zm-82-105a7.008,7.008,0,0,0-7,7v89a7.008,7.008,0,0,0,7,7h82a7.008,7.008,0,0,0,7-7v-89a7.008,7.008,0,0,0-7-7Z" transform="translate(-206.086 -223.444)" fill="#3f3d56"/>
      <path id="Caminho_701" data-name="Caminho 701" d="M431.123,306.508h-8a4.5,4.5,0,0,1-4.5-4.5v-8a4.5,4.5,0,0,1,4.5-4.5h8a4.505,4.505,0,0,1,4.5,4.5v8a4.505,4.505,0,0,1-4.5,4.5Z" transform="translate(-206.086 -223.444)" fill="#ff4500"/>
      <path id="Caminho_702" data-name="Caminho 702" d="M431.123,331.508h-8a4.505,4.505,0,0,1-4.5-4.5v-8a4.5,4.5,0,0,1,4.5-4.5h8a4.505,4.505,0,0,1,4.5,4.5v8A4.505,4.505,0,0,1,431.123,331.508Z" transform="translate(-206.086 -223.444)" fill="#ccc"/>
      <path id="Caminho_703" data-name="Caminho 703" d="M489.593,301.645H452.244a3,3,0,0,1-3-3v-1.274a3,3,0,0,1,3-3h37.349a3,3,0,0,1,3,3v1.274a3,3,0,0,1-3,3Z" transform="translate(-206.086 -223.444)" fill="#ff4500"/>
      <path id="Caminho_704" data-name="Caminho 704" d="M581.813,304.939h-8a4.505,4.505,0,0,1-4.5-4.5v-8a4.505,4.505,0,0,1,4.5-4.5h8a4.505,4.505,0,0,1,4.5,4.5v8A4.5,4.5,0,0,1,581.813,304.939Z" transform="translate(-206.086 -223.444)" fill="#ccc"/>
      <path id="Caminho_705" data-name="Caminho 705" d="M640.283,300.076H602.934a3,3,0,0,1-3-3V295.8a3,3,0,0,1,3-3h37.349a3,3,0,0,1,3,3v1.274a3,3,0,0,1-3,3Z" transform="translate(-206.086 -223.444)" fill="#ccc"/>
      <path id="Caminho_706" data-name="Caminho 706" d="M640.283,324.076H570.934a3,3,0,0,1-3-3V319.8a3,3,0,0,1,3-3h69.349a3,3,0,0,1,3,3v1.274a3,3,0,0,1-3,3Z" transform="translate(-206.086 -223.444)" fill="#ff4500"/>
      <path id="Caminho_707" data-name="Caminho 707" d="M640.283,341.076H570.934a3,3,0,0,1-3-3V336.8a3,3,0,0,1,3-3h69.349a3,3,0,0,1,3,3v1.274a3,3,0,0,1-3,3Z" transform="translate(-206.086 -223.444)" fill="#ccc"/>
      <path id="Caminho_708" data-name="Caminho 708" d="M640.283,358.076H570.934a3,3,0,0,1-3-3V353.8a3,3,0,0,1,3-3h69.349a3,3,0,0,1,3,3v1.274a3,3,0,0,1-3,3Z" transform="translate(-206.086 -223.444)" fill="#ccc"/>
      <path id="Caminho_709" data-name="Caminho 709" d="M796.608,376.508h-82a9.01,9.01,0,0,1-9-9v-89a9.01,9.01,0,0,1,9-9h82a9.01,9.01,0,0,1,9,9v89A9.01,9.01,0,0,1,796.608,376.508Zm-82-105a7.008,7.008,0,0,0-7,7v89a7.008,7.008,0,0,0,7,7h82a7.008,7.008,0,0,0,7-7v-89a7.008,7.008,0,0,0-7-7Z" transform="translate(-206.086 -223.444)" fill="#3f3d56"/>
      <path id="Caminho_710" data-name="Caminho 710" d="M790.283,300.076H752.934a3,3,0,0,1-3-3V295.8a3,3,0,0,1,3-3h37.349a3,3,0,0,1,3,3v1.274A3,3,0,0,1,790.283,300.076Z" transform="translate(-206.086 -223.444)" fill="#ccc"/>
      <path id="Caminho_711" data-name="Caminho 711" d="M790.283,324.076H720.934a3,3,0,0,1-3-3V319.8a3,3,0,0,1,3-3h69.349a3,3,0,0,1,3,3v1.274A3,3,0,0,1,790.283,324.076Z" transform="translate(-206.086 -223.444)" fill="#ccc"/>
      <path id="Caminho_712" data-name="Caminho 712" d="M790.283,341.076H720.934a3,3,0,0,1-3-3V336.8a3,3,0,0,1,3-3h69.349a3,3,0,0,1,3,3v1.274A3,3,0,0,1,790.283,341.076Z" transform="translate(-206.086 -223.444)" fill="#ccc"/>
      <path id="Caminho_713" data-name="Caminho 713" d="M790.283,358.076H720.934a3,3,0,0,1-3-3V353.8a3,3,0,0,1,3-3h69.349a3,3,0,0,1,3,3v1.274a3,3,0,0,1-3,3Z" transform="translate(-206.086 -223.444)" fill="#ccc"/>
      <path id="Caminho_714" data-name="Caminho 714" d="M489.593,326.645H452.244a3,3,0,0,1-3-3v-1.274a3,3,0,0,1,3-3h37.349a3,3,0,0,1,3,3v1.274a3,3,0,0,1-3,3Z" transform="translate(-206.086 -223.444)" fill="#ccc"/>
      <path id="Caminho_715" data-name="Caminho 715" d="M431.123,356.508h-8a4.5,4.5,0,0,1-4.5-4.5v-8a4.5,4.5,0,0,1,4.5-4.5h8a4.505,4.505,0,0,1,4.5,4.5v8a4.505,4.505,0,0,1-4.5,4.5Z" transform="translate(-206.086 -223.444)" fill="#ccc"/>
      <path id="Caminho_716" data-name="Caminho 716" d="M489.593,351.645H452.244a3,3,0,0,1-3-3v-1.274a3,3,0,0,1,3-3h37.349a3,3,0,0,1,3,3v1.274a3,3,0,0,1-3,3Z" transform="translate(-206.086 -223.444)" fill="#ccc"/>
      <path id="Caminho_717" data-name="Caminho 717" d="M736.6,295.508c0-.023,0-.045,0-.068a9,9,0,0,0-9-9v9.068Z" transform="translate(-206.086 -223.444)" fill="#ff4500"/>
      <path id="Caminho_718" data-name="Caminho 718" d="M726.608,296.508v-9.069a9,9,0,1,0,9,9.068Z" transform="translate(-206.086 -223.444)" fill="#ccc"/>
    </g>
    <g id="Grupo_133" data-name="Grupo 133" transform="translate(-977.586 -206.581)">
      <path id="União_1" data-name="União 1" d="M261.016,121H39a34,34,0,0,1,0-68H261a34,34,0,0,1,34,34c0,.542-.013,1.083-.038,1.619l.071,52.431Z" transform="translate(990 223)" fill="#ff4500"/>
      <text id="Comunicação" transform="translate(1029 320)" fill="#fff" font-size="34" font-family="Metropolis-Bold, Metropolis" font-weight="700"><tspan x="0" y="0">Comunicação</tspan></text>
    </g>
    <g id="Grupo_132" data-name="Grupo 132" transform="translate(-972.586 -272.975)">
      <path id="União_2" data-name="União 2" d="M34,88.05a34,34,0,0,1,0-68H256.015L290.032,0l-.07,52.43q.038.806.038,1.619a34,34,0,0,1-34,34Z" transform="translate(1545.032 738.025) rotate(180)" fill="#ff4500"/>
      <text id="Networking" transform="translate(1302.516 693.975)" fill="#fff" font-size="34" font-family="Metropolis-Bold, Metropolis" font-weight="700"><tspan x="0" y="0">Networking</tspan></text>
    </g>
    <g id="Grupo_134" data-name="Grupo 134" transform="translate(-731.586 -649.975)">
      <path id="União_2-2" data-name="União 2" d="M34,88.05a34,34,0,0,1,0-68H256.015L290.032,0l-.07,52.43q.038.806.038,1.619a34,34,0,0,1-34,34Z" transform="translate(1545.032 738.025) rotate(180)" fill="#ff4500"/>
      <text id="Experiências" transform="translate(1300.516 695.975)" fill="#fff" font-size="34" font-family="Metropolis-Bold, Metropolis" font-weight="700"><tspan x="0" y="0">Experiências</tspan></text>
    </g>
  </g>
</svg>
