<svg id="undraw_percentages_re_a1ao" xmlns="http://www.w3.org/2000/svg" width="245.788" height="209.671" viewBox="0 0 245.788 209.671">
  <path id="Caminho_755" data-name="Caminho 755" d="M868.015,697.181l.005-.245a28.245,28.245,0,0,1,10.562-21.271,27.407,27.407,0,0,1,5.888-3.548l.2-.089.034.217c.407,2.589,1.053,5.231,1.353,6.4l2.015-7.862.224-.065a5.357,5.357,0,0,1,5.718,1.827,5.449,5.449,0,0,1,.565,6.079c-.47.875-.931,1.788-1.378,2.671-1.534,3.034-3.12,6.171-5.432,8.608A17.073,17.073,0,0,1,874,695.044Z" transform="translate(-651.114 -488.327)" fill="#f2f2f2"/>
  <path id="Caminho_756" data-name="Caminho 756" d="M537.191,560.048h-3.506l-1.668-13.524h5.175Z" transform="translate(-345.411 -354.83)" fill="#ffb6b6"/>
  <path id="Caminho_757" data-name="Caminho 757" d="M776.79,735.833H766.008V735.7a4.2,4.2,0,0,1,4.2-4.2h0l1.969-1.494,3.674,1.494h.941Z" transform="translate(-584.886 -526.958)" fill="#2f2e41"/>
  <path id="Caminho_758" data-name="Caminho 758" d="M627.323,537.144l-2.77,2.149-9.61-9.661,4.088-3.173Z" transform="translate(-399.251 -341.803)" fill="#ffb6b6"/>
  <path id="Caminho_759" data-name="Caminho 759" d="M888.984,709.717l-8.518,6.61-.084-.108a4.2,4.2,0,0,1,.742-5.888h0l.64-2.388,3.819-1.072.744-.577Z" transform="translate(-658.571 -511.563)" fill="#2f2e41"/>
  <path id="Caminho_760" data-name="Caminho 760" d="M796.893,498.558s-.239,3.661-.541,8.9c-.049.858.242,1.791.19,2.725-.035.62-.413,1.222-.448,1.868-.037.682.485,1.285.448,1.99-.036.689-.632,1.479-.668,2.184-.386,7.588-1.788,16.672-.385,19.212.691,1.252,11.224,18.59,11.224,18.59s-4.911,7.366-6.313,4.911c-1.853-3.243-16.135-18.414-16.135-21.312s-3.3-24.581-3.3-24.581l-2.3,12.834-1.056,2.543.332,1.493-.683,2.015-.037,1.994-.665,3.7s2,28.846.873,29.649-6.6,2.255-7.243.807-3.1-30.105-3.1-30.105-.673-13.132-1.4-25.338c-.042-.708-.54-1.564-.579-2.262-.046-.81.27-1.862.228-2.648-.046-.9-.445-1.536-.484-2.4-.3-6.668-.344-11.922.189-12.722,1.61-2.413,3.059-4.342,3.059-4.342s23.009-5.633,28.8,1.606Z" transform="translate(-583.986 -368.649)" fill="#2f2e41"/>
  <path id="Caminho_761" data-name="Caminho 761" d="M773.53,324.041l5.548-.31,4.181,2.282,11.627,65.842s-11.885,5.493-19.251,3.389a59.508,59.508,0,0,0-15.123-1.986l5.652-62.9,4.56-4.209Z" transform="translate(-581.318 -263.184)" fill="#e6e6e6"/>
  <path id="Caminho_762" data-name="Caminho 762" d="M820.85,328.6l8.587,3.507A5.844,5.844,0,0,1,834.9,336.9l-.57,16.96-3.1,8.068,2.209,18.379-1.156,2.315,1,2.363c-1.467,2.381-1.168,5.5-.3,8.861h-1.052l-2.1-.351s-4.633,1.608-5.583-4.169c-2.485-15.123-3.888-8.458-3.888-8.458l-1.223-46.921Z" transform="translate(-619.382 -266.342)" fill="#3f3d56"/>
  <path id="Caminho_763" data-name="Caminho 763" d="M765.66,328.615l-8.022,8.41a5.844,5.844,0,0,0-5.466,4.794l3.316,26.08-1.556,10.007.855,2.269-.619,2.565.97,2.346-.7,3.157,1.052,4.56,5.261-1.4-.04-3.74,1.4-50.859Z" transform="translate(-575.903 -266.355)" fill="#3f3d56"/>
  <path id="Caminho_764" data-name="Caminho 764" d="M689.938,451.872,679.011,459.8a2.386,2.386,0,1,0,2.253,3.461l14.859-7.933Z" transform="translate(-526.934 -346.38)" fill="#ffb6b6"/>
  <path id="Caminho_765" data-name="Caminho 765" d="M719.41,355.011c-2.077.958-7.208,25.483-8.713,26s-.931.442-1.142.876-.262,2.378-1.708,2.606-9.083,7.191-9.083,7.191l1.936,6.454s14.7-8.4,18.749-13.046,6.234-28.561,6.234-28.561l.414-2.386S721.487,354.053,719.41,355.011Z" transform="translate(-541.228 -282.93)" fill="#3f3d56"/>
  <path id="Caminho_766" data-name="Caminho 766" d="M829.977,442.64l-9.738,9.352a2.386,2.386,0,1,0,2.705,3.119l13.633-9.893Z" transform="translate(-618.837 -340.386)" fill="#ffb6b6"/>
  <path id="Caminho_767" data-name="Caminho 767" d="M843.806,350.195c-1.926,1.233,5.393,19.123,3.973,19.844s-.862.565-1.011,1.024.066,2.391-1.335,2.815-8.013,8.367-8.013,8.367l2.8,6.128s13.408-10.33,16.786-15.491,1.18-6.9,1.18-6.9c-4.19-8.9-8.109-23.413-14.03-22.448C844.157,343.53,845.732,348.961,843.806,350.195Z" transform="translate(-631.25 -276.009)" fill="#3f3d56"/>
  <circle id="Elipse_28" data-name="Elipse 28" cx="9.402" cy="9.402" r="9.402" transform="translate(183.999 40.663)" fill="#ffb6b6"/>
  <path id="Caminho_768" data-name="Caminho 768" d="M790.067,279.384s-2.071.568-3.276.884a17.836,17.836,0,0,1,.648-2.613,2.671,2.671,0,0,0-.5-2.528c-.652-.619-2.01-.378-2.115.513l-1.658-3.545c-1.579,3.25-4.808.48-8.328,1.3-1.8.423-4.046.241-5-1.341a5.861,5.861,0,0,0,1.327-1.591,5.356,5.356,0,0,1-1.686.214,3.535,3.535,0,0,1,1.563-2.853c.506-.331-.747-1.509-.305-1.923.906-.846,1.515-.272,2.05-1.387a4.12,4.12,0,0,1,3.722-2.276c1.539.036,4.3.021,4.893,1.439a5.873,5.873,0,0,1,6.411.413c1.546,1.082,3.3,4.352,3.693,6.2S791.046,277.775,790.067,279.384Z" transform="translate(-587.144 -223.26)" fill="#2f2e41"/>
  <path id="Caminho_769" data-name="Caminho 769" d="M376.665,236.533H316.459a4.283,4.283,0,0,1-4.323-3.922,4.211,4.211,0,0,1,4.2-4.5h60.329a4.209,4.209,0,1,1,0,8.418Z" transform="translate(-290.205 -201.106)" fill="#ff4500"/>
  <path id="Caminho_770" data-name="Caminho 770" d="M410.973,270.316H311.978a.351.351,0,1,1,0-.7h98.995a.351.351,0,0,1,0,.7Z" transform="translate(-289.88 -228.05)" fill="#e6e6e6"/>
  <path id="Caminho_771" data-name="Caminho 771" d="M406.856,236.384H316.011a4.384,4.384,0,0,1,0-8.769h90.845a4.384,4.384,0,0,1,0,8.769Zm-90.845-8.067a3.683,3.683,0,1,0,0,7.366h90.845a3.683,3.683,0,1,0,0-7.366Z" transform="translate(-289.88 -200.781)" fill="#3f3d56"/>
  <path id="Caminho_772" data-name="Caminho 772" d="M349.657,330.533h-33.2a4.283,4.283,0,0,1-4.323-3.922,4.211,4.211,0,0,1,4.2-4.5h33.321a4.209,4.209,0,0,1,0,8.418Z" transform="translate(-290.205 -262.135)" fill="#ff4500"/>
  <path id="Caminho_773" data-name="Caminho 773" d="M410.973,364.316H311.978a.351.351,0,1,1,0-.7h98.995a.351.351,0,0,1,0,.7Z" transform="translate(-289.88 -289.079)" fill="#e6e6e6"/>
  <path id="Caminho_774" data-name="Caminho 774" d="M406.856,330.384H316.011a4.384,4.384,0,0,1,0-8.769h90.845a4.384,4.384,0,0,1,0,8.769Zm-90.845-8.067a3.683,3.683,0,0,0,0,7.366h90.845a3.683,3.683,0,0,0,0-7.366Z" transform="translate(-289.88 -261.811)" fill="#3f3d56"/>
  <path id="Caminho_775" data-name="Caminho 775" d="M394.2,424.533H316.459a4.283,4.283,0,0,1-4.323-3.922,4.211,4.211,0,0,1,4.2-4.5H394.2a4.209,4.209,0,1,1,0,8.418Z" transform="translate(-290.205 -323.164)" fill="#ff4500"/>
  <path id="Caminho_776" data-name="Caminho 776" d="M410.973,458.316H311.978a.351.351,0,0,1,0-.7h98.995a.351.351,0,0,1,0,.7Z" transform="translate(-289.88 -350.108)" fill="#e6e6e6"/>
  <path id="Caminho_777" data-name="Caminho 777" d="M406.856,424.384H316.011a4.384,4.384,0,0,1,0-8.769h90.845a4.384,4.384,0,0,1,0,8.769Zm-90.845-8.067a3.683,3.683,0,0,0,0,7.366h90.845a3.683,3.683,0,0,0,0-7.366Z" transform="translate(-289.88 -322.84)" fill="#3f3d56"/>
  <path id="Caminho_778" data-name="Caminho 778" d="M228.915,38.786h-.7V11.763h50.739v.7H228.915Z" transform="translate(-148.167 -7.637)" fill="#ccc"/>
  <circle id="Elipse_29" data-name="Elipse 29" cx="4.19" cy="4.19" r="4.19" transform="translate(128.764 0)" fill="#ccc"/>
  <path id="Caminho_779" data-name="Caminho 779" d="M68.166,154.211h.7V138.763H18.129v.7H68.166Z" transform="translate(-11.77 -90.092)" fill="#ccc"/>
  <circle id="Elipse_30" data-name="Elipse 30" cx="4.19" cy="4.19" r="4.19" transform="translate(0 44.546)" fill="#ccc"/>
  <path id="Caminho_780" data-name="Caminho 780" d="M294.915,280.2h-.7v19.306h43.022v-.7H294.915Z" transform="translate(-191.018 -181.92)" fill="#ccc"/>
  <circle id="Elipse_31" data-name="Elipse 31" cx="4.19" cy="4.19" r="4.19" transform="translate(144.197 113.333)" fill="#ccc"/>
  <path id="Caminho_781" data-name="Caminho 781" d="M771.977,747.035l-95.317.108a.418.418,0,0,1,0-.835l95.317-.108a.418.418,0,0,1,0,.835Z" transform="translate(-526.606 -537.471)" fill="#cacaca"/>
  <path id="Caminho_782" data-name="Caminho 782" d="M797.344,322.363a1.564,1.564,0,0,0-2.12-.5,1.846,1.846,0,0,0-.681-2.436,4.986,4.986,0,0,0-3.14-.356l-8.754.914a8.057,8.057,0,0,0-2.945.691,2.739,2.739,0,0,0-1.586,2.406,5.037,5.037,0,0,0-2.147-.291,1.721,1.721,0,0,0-1.506,1.364c-.123,1.162,1.258,1.834,2.382,2.152l6.265,1.775-.644.138a26.684,26.684,0,0,0,12.085-1.748,5.874,5.874,0,0,0,2.386-1.48A2.344,2.344,0,0,0,797.344,322.363Z" transform="translate(-590.372 -260.103)" fill="#e6e6e6"/>
</svg>
