<svg xmlns="http://www.w3.org/2000/svg" width="202.485" height="241.296" viewBox="0 0 202.485 241.296">
  <g id="undraw_completing_re_i7ap" transform="translate(0.037 0.025)">
    <path id="Caminho_783" data-name="Caminho 783" d="M463.209,496.559a22.329,22.329,0,0,0-16.018-6.538h-.237a22.872,22.872,0,0,1-11.53-3.114l-.364-.212.293-.3a22.294,22.294,0,0,0,3.931-5.566,6.741,6.741,0,0,1-5.441,1.758,6.9,6.9,0,0,1-5.067-3.246c-2.15-3.488-4.712-8.437-4.712-12.207a22.942,22.942,0,0,1,7.485-16.929,14.286,14.286,0,0,0,4.719-10.652v-.286a32.413,32.413,0,0,1,.963-7.845l.064-.254.266.009a21.9,21.9,0,0,0,5.122-.429,17.286,17.286,0,0,1-4.593-1.222l-.287-.116.1-.294c6.706-4.152,21.842-2,30.628-22.1,7.124-16.3,32.26,14.469,32.26,32.254,0,1.815-1.8,4.213-.452,5.412,14.534,12.966,4.506,21.292,1.344,29.67-.75,1.988.876,4.17.876,6.321,0,.365-.009.742-.028,1.12l-.028.581-.485-.322a16.052,16.052,0,0,1-2.651-2.174,13.988,13.988,0,0,1-.444,12.076,21.384,21.384,0,0,1-4.38,6.116,22.867,22.867,0,0,1-31.333-1.505Z" transform="translate(-384.814 -298.536)" fill="#e6e6e6"/>
    <path id="Caminho_784" data-name="Caminho 784" d="M567.9,637.391a.412.412,0,0,0,.407-.354,137.828,137.828,0,0,0,.192-28.9c-1.421-15.164-5.984-37.006-19.652-54.944a.412.412,0,0,0-.655.5c13.55,17.783,18.076,39.465,19.487,54.522a136.893,136.893,0,0,1-.187,28.7.412.412,0,0,0,.408.47Z" transform="translate(-465.171 -396.119)" fill="#3f3d56"/>
    <path id="Caminho_785" data-name="Caminho 785" d="M497.57,606.493a.412.412,0,0,0,.242-.745,56.736,56.736,0,0,0-12.525-6.376c-6.91-2.53-17.419-4.824-28.237-1.38a.412.412,0,0,0,.25.784c10.6-3.372,20.914-1.117,27.7,1.369a55.806,55.806,0,0,1,12.324,6.269A.409.409,0,0,0,497.57,606.493Z" transform="translate(-405.998 -424.114)" fill="#3f3d56"/>
    <path id="Caminho_786" data-name="Caminho 786" d="M603.294,491.288a.412.412,0,0,0-.725-.3,56.735,56.735,0,0,0-7.261,12.034c-3.021,6.71-6.065,17.026-3.41,28.064a.412.412,0,0,0,.8-.193c-2.6-10.812.392-20.94,3.361-27.534a55.8,55.8,0,0,1,7.14-11.841A.41.41,0,0,0,603.294,491.288Z" transform="translate(-492.881 -355.833)" fill="#3f3d56"/>
    <path id="Caminho_787" data-name="Caminho 787" d="M775.851,727.13h-32.77l-.141-.256c-.419-.76-.823-1.565-1.2-2.392-3.376-7.227-4.8-15.492-6.061-22.784l-.948-5.5a3.394,3.394,0,0,1,5.342-3.32q7.47,5.436,14.946,10.861c1.887,1.373,4.042,2.962,6.107,4.68.2-.967.407-1.937.616-2.894a3.4,3.4,0,0,1,6.2-1.072l3.834,6.16c2.8,4.5,5.265,8.931,4.762,13.712a.746.746,0,0,1-.013.174,10.817,10.817,0,0,1-.556,2.3Z" transform="translate(-586.037 -486.294)" fill="#f0f0f0"/>
    <path id="Caminho_788" data-name="Caminho 788" d="M782.455,377.152l-6.324-23.408a3.914,3.914,0,0,0-4.747-2.759h0a3.914,3.914,0,0,0-2.762,4.963l7.315,24.114,3.827,14.84a3.415,3.415,0,1,0,4.379.2Z" transform="translate(-607.909 -265.148)" fill="#a0616a"/>
    <path id="Caminho_789" data-name="Caminho 789" d="M615.617,371.1l19.216-14.789a3.914,3.914,0,0,0,.736-5.442h0a3.914,3.914,0,0,0-5.642-.656l-19.49,15.974L598.185,375.4a3.415,3.415,0,1,0,1.492,4.121Z" transform="translate(-494.289 -264.141)" fill="#a0616a"/>
    <path id="Caminho_790" data-name="Caminho 790" d="M700.035,418.918l-.847,18.917,26.6-5.78c-2.264-7.6-3.8-8.9-2.1-14.188Z" transform="translate(-563.045 -308.556)" fill="#a0616a"/>
    <path id="Caminho_791" data-name="Caminho 791" d="M708.709,322.378h-8.862l-3.806,6.512-1.813-.1a6.533,6.533,0,0,0-6.893,6.523h0l2.234,3.463s-4,6.964,1.76,10.39c0,0-1.027,6.455,0,6.385s3.391-1.383,1.027-.069-2.188,1.49-1.882,1.8l.306.306,24.864,4.175s.727-4.82.806-5.68-.447,1.242.078-.86,1.314-1.314.525-2.1,5.107-10.553,2.685-14.341l3.884-3.788h0c0-3.633-5.836-6.579-9.469-6.579h-.465Z" transform="translate(-555.366 -246.696)" fill="#e6e6e6"/>
    <path id="Caminho_792" data-name="Caminho 792" d="M365.115,637.73h-3.587L359.822,623.9h5.294Z" transform="translate(-233.123 -404.187)" fill="#a0616a"/>
    <path id="Caminho_793" data-name="Caminho 793" d="M656.642,772.03a1.526,1.526,0,0,0,1.516,1.519h6.752l.209-.434.955-1.971.37,1.971.082.434h2.547l-.036-.437-.679-8.144-.888-.055-3.838-.227-.943-.058v2.432C661.972,767.821,656.357,770.7,656.642,772.03Z" transform="translate(-535.476 -533.195)" fill="#2f2e41"/>
    <path id="Caminho_794" data-name="Caminho 794" d="M504.254,615.1l-3.016,1.941-8.92-10.712,4.452-2.864Z" transform="translate(-318.956 -390.952)" fill="#a0616a"/>
    <path id="Caminho_795" data-name="Caminho 795" d="M820.7,750.627a1.526,1.526,0,0,0,2.1.457l5.678-3.653-.059-.478-.263-2.174,1.377,1.457.3.32,2.142-1.378-.267-.348-4.977-6.481-.777.435-3.351,1.885-.824.462,1.316,2.045C822.91,744.2,819.745,749.661,820.7,750.627Z" transform="translate(-641.648 -516.171)" fill="#2f2e41"/>
    <path id="Caminho_796" data-name="Caminho 796" d="M681.2,790.5l-111.063.108a.419.419,0,0,1,0-.839l111.063-.108a.419.419,0,1,1,0,.839Z" transform="translate(-479.172 -549.411)" fill="#cacaca"/>
    <path id="Caminho_797" data-name="Caminho 797" d="M702.61,452.085s-17,8.992-25.992,2.857c0,0-1.967,9.527-2.755,10.315s-2.044,1.132-1.153,2.011,1.386,2.067-.306,3.575-3.381,1.03-1.749,2.583-4.936,39.65-4.936,39.65,1.051,35.429,0,36.5-2.456,1.311-1.1,2.637,1.359.3,1.359,2.125v1.828l.622,1.816h8.531s2.059-2.392,0-4.469.627-2.645,1.254-4.595,1.679.153.628-1.949-1.556-1.7-1.566-3.084,15.491-55.506,15.491-55.506l1.878,29.957L715.4,551.143l6.647-4.986s-4.84-6.813-3.708-7.75-3.336-2.111-1.927-3.168-1.982-2.121-.7-3.522-1.761-4.931-3.522-4.931-4.232-5.884-4.232-5.884l3.689-46.485Z" transform="translate(-540.288 -330.723)" fill="#2f2e41"/>
    <path id="Caminho_798" data-name="Caminho 798" d="M705.445,267.707a5.24,5.24,0,0,1-2.231-.1c-2.279-.333-2.59.063-4.293,1.612-2.468,2.245-1.065,15.937-2.277,18.9l-.392.289a14.093,14.093,0,0,0,2.282-.638c.419-1.321.839-2.647,1.261-3.967a11.617,11.617,0,0,1,.745,3.2,17.9,17.9,0,0,1,3.621-1.555c1.234-.837,10.165-1.679,11.313-2.048C718.387,273.5,713.691,269.49,705.445,267.707Z" transform="translate(-561.142 -211.147)" fill="#2f2e41"/>
    <circle id="Elipse_32" data-name="Elipse 32" cx="8.534" cy="8.534" r="8.534" transform="translate(138.784 54.779)" fill="#a0616a"/>
    <path id="Caminho_799" data-name="Caminho 799" d="M742.513,257.978a3.811,3.811,0,0,1-1.364-.478,1.3,1.3,0,0,1-.621-1.227,1.311,1.311,0,0,1,1.4-.931,3.822,3.822,0,0,1,1.693.685,2.625,2.625,0,0,0-2.236-2.352,5.449,5.449,0,0,1,2.395.229,1.864,1.864,0,0,1,1.235,1.878,3.061,3.061,0,0,1,3.013,1.869,5.09,5.09,0,0,1,0,3.709,1.31,1.31,0,0,1-.657.868,1.4,1.4,0,0,1-1.244-.374,29.742,29.742,0,0,1-5.187-4.791" transform="translate(-589.822 -202.17)" fill="#2f2e41"/>
    <path id="Caminho_800" data-name="Caminho 800" d="M721.709,275.829c-.362.17-.173.8-.455,1.088a1.157,1.157,0,0,1-.431.268,5.183,5.183,0,0,0-.365-1.54c-.037-.089-.1-.189-.192-.181-.11.013-.139.158-.142.265a4.451,4.451,0,0,1-.349,1.553l-.008.018-.244-.008c-.609-.024-1.96-1.59-2.26-1.059A19.87,19.87,0,0,0,719.8,269.4a3.029,3.029,0,0,0-.1-1.34,1.184,1.184,0,0,0-.985-.815.754.754,0,0,0-.78.862l-.152-.021c-1.414-1.151-.194-3.15-1.839-3.941-.557-.268-3.967.628-4.569.47a5.178,5.178,0,0,0-.381-1.847c-.037-.089-.1-.189-.192-.181-.11.013-.139.158-.142.265a4.453,4.453,0,0,1-.349,1.553,6.507,6.507,0,0,0-2.5.131c-.72.189-1.4.515-2.125.688a2.748,2.748,0,0,1-2.16-.236,2.433,2.433,0,0,1-.62-2.979,5.869,5.869,0,0,1,1.319-1.7c.412-.4.841-.783,1.269-1.167l1.151-1.033a14.035,14.035,0,0,1,1.54-1.256,7.6,7.6,0,0,1,5.93-1.035c1.209.289,2.824-.118,3.93.447a23.287,23.287,0,0,1,2.365,1.839c1.3,1.033.42.191,1.839.788C725.641,260.317,724.144,274.683,721.709,275.829Z" transform="translate(-565.298 -203.444)" fill="#2f2e41"/>
    <circle id="Elipse_33" data-name="Elipse 33" cx="52.923" cy="52.923" r="52.923" transform="translate(9 28.827)" fill="#fff"/>
    <path id="Caminho_801" data-name="Caminho 801" d="M390.124,294.739a53.451,53.451,0,1,1,53.451-53.451A53.512,53.512,0,0,1,390.124,294.739Zm0-105.846a52.395,52.395,0,1,0,52.395,52.395A52.454,52.454,0,0,0,390.124,188.893Z" transform="translate(-328.201 -159.538)" fill="#ff662e"/>
    <path id="Caminho_802" data-name="Caminho 802" d="M430.558,316.483a5.885,5.885,0,0,1-4.709-2.355l-14.438-19.251a5.887,5.887,0,1,1,9.419-7.064l9.446,12.594,24.261-36.391a5.887,5.887,0,1,1,9.8,6.531l-28.876,43.315a5.89,5.89,0,0,1-4.735,2.62Z" transform="translate(-375.854 -207.189)" fill="#ff662e"/>
    <ellipse id="Elipse_34" data-name="Elipse 34" cx="1.851" cy="2.661" rx="1.851" ry="2.661" transform="matrix(0.144, -0.99, 0.99, 0.144, 110.916, 33.199)" fill="#e6e6e6"/>
    <ellipse id="Elipse_35" data-name="Elipse 35" cx="1.851" cy="2.661" rx="1.851" ry="2.661" transform="matrix(0.144, -0.99, 0.99, 0.144, 128.233, 31.51)" fill="#3f3d56"/>
    <ellipse id="Elipse_36" data-name="Elipse 36" cx="1.851" cy="2.661" rx="1.851" ry="2.661" transform="matrix(0.144, -0.99, 0.99, 0.144, 106.174, 19.18)" fill="#ff6584"/>
    <ellipse id="Elipse_37" data-name="Elipse 37" cx="1.682" cy="1.17" rx="1.682" ry="1.17" transform="matrix(0.008, -1, 1, 0.008, 101.83, 14.036)" fill="#e6e6e6"/>
    <ellipse id="Elipse_38" data-name="Elipse 38" cx="1.682" cy="1.17" rx="1.682" ry="1.17" transform="matrix(0.008, -1, 1, 0.008, 99.278, 3.339)" fill="#3f3d56"/>
    <ellipse id="Elipse_39" data-name="Elipse 39" cx="1.682" cy="1.17" rx="1.682" ry="1.17" transform="matrix(0.008, -1, 1, 0.008, 119.122, 22.164)" fill="#e6e6e6"/>
    <ellipse id="Elipse_40" data-name="Elipse 40" cx="1.682" cy="1.17" rx="1.682" ry="1.17" transform="matrix(0.008, -1, 1, 0.008, 110.753, 26.342)" fill="#ff6584"/>
    <ellipse id="Elipse_41" data-name="Elipse 41" cx="1.682" cy="1.17" rx="1.682" ry="1.17" transform="matrix(0.008, -1, 1, 0.008, 122.402, 34.065)" fill="#3f3d56"/>
    <ellipse id="Elipse_42" data-name="Elipse 42" cx="1.851" cy="2.661" rx="1.851" ry="2.661" transform="matrix(0.144, -0.99, 0.99, 0.144, 11.601, 158.575)" fill="#e6e6e6"/>
    <ellipse id="Elipse_43" data-name="Elipse 43" cx="1.851" cy="2.661" rx="1.851" ry="2.661" transform="matrix(0.144, -0.99, 0.99, 0.144, 28.918, 156.886)" fill="#3f3d56"/>
    <ellipse id="Elipse_44" data-name="Elipse 44" cx="1.851" cy="2.661" rx="1.851" ry="2.661" transform="matrix(0.144, -0.99, 0.99, 0.144, 6.859, 144.556)" fill="#ff6584"/>
    <ellipse id="Elipse_45" data-name="Elipse 45" cx="1.682" cy="1.17" rx="1.682" ry="1.17" transform="matrix(0.008, -1, 1, 0.008, 2.515, 139.412)" fill="#e6e6e6"/>
    <ellipse id="Elipse_46" data-name="Elipse 46" cx="1.682" cy="1.17" rx="1.682" ry="1.17" transform="matrix(0.008, -1, 1, 0.008, -0.037, 128.715)" fill="#3f3d56"/>
    <ellipse id="Elipse_47" data-name="Elipse 47" cx="1.682" cy="1.17" rx="1.682" ry="1.17" transform="matrix(0.008, -1, 1, 0.008, 19.807, 147.54)" fill="#e6e6e6"/>
    <ellipse id="Elipse_48" data-name="Elipse 48" cx="1.682" cy="1.17" rx="1.682" ry="1.17" transform="matrix(0.008, -1, 1, 0.008, 11.438, 151.718)" fill="#ff6584"/>
    <ellipse id="Elipse_49" data-name="Elipse 49" cx="1.682" cy="1.17" rx="1.682" ry="1.17" transform="matrix(0.008, -1, 1, 0.008, 23.087, 159.441)" fill="#3f3d56"/>
  </g>
</svg>
