<svg xmlns="http://www.w3.org/2000/svg" width="240.72" height="209.67" viewBox="0 0 240.72 209.67">
  <g id="undraw_developer_activity_re_39tg" transform="translate(0 0)">
    <path id="Caminho_803" data-name="Caminho 803" d="M391.773,188.7A100.249,100.249,0,0,1,363.8,258.3q-1.626,1.7-3.34,3.323-2.611,2.484-5.4,4.775A100.17,100.17,0,0,1,293.48,289.23q-1.125.025-2.259.025c-17.952,0-40.531-9.589-61.022-22.862q-2.543-1.647-5.041-3.371-1.167-.8-2.324-1.619a206.738,206.738,0,0,1-22.449-18.34,145.507,145.507,0,0,1-12.948-13.845c-15.744-19.421-19.217-36.92,3.229-40.517q3.986-.637,7.738-1.361,5.434-1.044,10.4-2.256,6.691-1.626,12.572-3.526,1.978-.637,3.866-1.3c18.606-6.535,31.059-15.057,39.535-24.3q2.157-2.348,3.976-4.752a66.8,66.8,0,0,0,5.046-7.676,72.14,72.14,0,0,0,5.21-11.618l.076-.221c6.744-19.455,4.693-37.5,12.133-43.54,31.806-25.82,71.4,10.95,89.989,54.312q1.405,3.277,2.643,6.594.556,1.482,1.073,2.969,1.358,3.876,2.465,7.772.425,1.486.809,2.969c.275,1.067.538,2.131.781,3.2A101.36,101.36,0,0,1,391.773,188.7Z" transform="translate(-174.731 -79.585)" fill="#f2f2f2"/>
    <path id="Caminho_804" data-name="Caminho 804" d="M421.23,716.549q-1.125.026-2.259.026c-17.952,0-40.531-9.589-61.022-22.862q-2.543-1.647-5.041-3.371l1.46-8.887,44.211-5.87,22.189,16.967Z" transform="translate(-302.481 -506.905)" fill="#2f2e41"/>
    <path id="Caminho_805" data-name="Caminho 805" d="M584,259.635h-6.3a.736.736,0,0,0-.736.736v6.3a.734.734,0,0,0,.736.733H584a.736.736,0,0,0,.736-.733v-6.3A.738.738,0,0,0,584,259.635Z" transform="translate(-463.127 -208.677)" fill="#fff"/>
    <path id="Caminho_806" data-name="Caminho 806" d="M584,297.585h-6.3a.736.736,0,0,0-.736.736v6.3a.734.734,0,0,0,.736.733H584a.736.736,0,0,0,.736-.733v-6.3A.738.738,0,0,0,584,297.585Z" transform="translate(-463.128 -235.886)" fill="#e6e6e6"/>
    <path id="Caminho_807" data-name="Caminho 807" d="M584,335.535h-6.3a.736.736,0,0,0-.736.736v6.3a.734.734,0,0,0,.736.736H584a.736.736,0,0,0,.736-.736v-6.3A.738.738,0,0,0,584,335.535Z" transform="translate(-463.128 -263.096)" fill="#e6e6e6"/>
    <path id="Caminho_808" data-name="Caminho 808" d="M584.729,374.091a.741.741,0,0,0-.725-.606h-6.3a.736.736,0,0,0-.736.736v6.3a.734.734,0,0,0,.736.736H584a.736.736,0,0,0,.736-.736v-6.3A.651.651,0,0,0,584.729,374.091Z" transform="translate(-463.128 -290.305)" fill="#e6e6e6"/>
    <path id="Caminho_809" data-name="Caminho 809" d="M584.291,411.492a.745.745,0,0,0-.286-.057h-6.3a.734.734,0,0,0-.736.736v6.3a.733.733,0,0,0,.736.736H584a.736.736,0,0,0,.736-.736v-6.3A.74.74,0,0,0,584.291,411.492Z" transform="translate(-463.128 -317.515)" fill="#e6e6e6"/>
    <path id="Caminho_810" data-name="Caminho 810" d="M630.765,259.635h-6.3a.736.736,0,0,0-.736.736v6.3a.733.733,0,0,0,.736.733h6.3a.736.736,0,0,0,.736-.733v-6.3A.738.738,0,0,0,630.765,259.635Z" transform="translate(-496.654 -208.677)" fill="#e6e6e6"/>
    <path id="Caminho_811" data-name="Caminho 811" d="M630.765,297.585h-6.3a.736.736,0,0,0-.736.736v6.3a.734.734,0,0,0,.736.733h6.3a.736.736,0,0,0,.736-.733v-6.3A.738.738,0,0,0,630.765,297.585Z" transform="translate(-496.654 -235.886)" fill="#ff4500"/>
    <path id="Caminho_812" data-name="Caminho 812" d="M630.765,335.535h-6.3a.736.736,0,0,0-.736.736v6.3a.734.734,0,0,0,.736.736h6.3a.736.736,0,0,0,.736-.736v-6.3A.738.738,0,0,0,630.765,335.535Z" transform="translate(-496.654 -263.096)" fill="#ff4500"/>
    <path id="Caminho_813" data-name="Caminho 813" d="M630.765,373.485h-6.3a.734.734,0,0,0-.7.5.7.7,0,0,0-.04.232v6.3a.734.734,0,0,0,.736.736h6.3a.736.736,0,0,0,.736-.736v-6.3A.738.738,0,0,0,630.765,373.485Z" transform="translate(-496.653 -290.305)" fill="#ff4500"/>
    <path id="Caminho_814" data-name="Caminho 814" d="M630.765,411.435h-6.3a.734.734,0,0,0-.736.736v6.3a.734.734,0,0,0,.736.736h6.3a.736.736,0,0,0,.736-.736v-6.3A.736.736,0,0,0,630.765,411.435Z" transform="translate(-496.654 -317.515)" fill="#e6e6e6"/>
    <path id="Caminho_815" data-name="Caminho 815" d="M677.525,259.635h-6.3a.736.736,0,0,0-.736.736v6.3a.734.734,0,0,0,.736.733h6.3a.736.736,0,0,0,.736-.733v-6.3A.738.738,0,0,0,677.525,259.635Z" transform="translate(-530.18 -208.677)" fill="#ff4500"/>
    <path id="Caminho_816" data-name="Caminho 816" d="M677.525,297.585h-6.3a.736.736,0,0,0-.736.736v6.3a.733.733,0,0,0,.736.733h6.3a.735.735,0,0,0,.736-.733v-6.3A.738.738,0,0,0,677.525,297.585Z" transform="translate(-530.179 -235.886)" fill="#ff4500"/>
    <path id="Caminho_817" data-name="Caminho 817" d="M677.525,335.535h-6.3a.736.736,0,0,0-.736.736v6.3a.734.734,0,0,0,.736.736h6.3a.736.736,0,0,0,.736-.736v-6.3A.738.738,0,0,0,677.525,335.535Z" transform="translate(-530.18 -263.096)" fill="#e6e6e6"/>
    <path id="Caminho_818" data-name="Caminho 818" d="M677.525,373.485h-6.3a.736.736,0,0,0-.736.736v6.3a.734.734,0,0,0,.736.736h6.3a.736.736,0,0,0,.736-.736v-6.3A.738.738,0,0,0,677.525,373.485Z" transform="translate(-530.179 -290.305)" fill="#ff4500"/>
    <path id="Caminho_819" data-name="Caminho 819" d="M677.525,411.435h-6.3a.734.734,0,0,0-.736.736v6.3a.734.734,0,0,0,.736.736h6.3a.736.736,0,0,0,.736-.736v-6.3A.736.736,0,0,0,677.525,411.435Z" transform="translate(-530.18 -317.515)" fill="#ff4500"/>
    <path id="Caminho_820" data-name="Caminho 820" d="M724.285,259.635h-6.3a.736.736,0,0,0-.736.736v6.3a.733.733,0,0,0,.736.733h6.3a.735.735,0,0,0,.736-.733v-6.3A.738.738,0,0,0,724.285,259.635Z" transform="translate(-563.705 -208.677)" fill="#ff4500"/>
    <path id="Caminho_821" data-name="Caminho 821" d="M724.285,297.585h-6.3a.736.736,0,0,0-.736.736v6.3a.734.734,0,0,0,.736.733h6.3a.736.736,0,0,0,.736-.733v-6.3A.738.738,0,0,0,724.285,297.585Z" transform="translate(-563.705 -235.886)" fill="#fff"/>
    <path id="Caminho_822" data-name="Caminho 822" d="M724.285,335.535h-6.3a.736.736,0,0,0-.736.736v6.3a.734.734,0,0,0,.736.736h6.3a.736.736,0,0,0,.736-.736v-6.3A.738.738,0,0,0,724.285,335.535Z" transform="translate(-563.705 -263.096)" fill="#fff"/>
    <path id="Caminho_823" data-name="Caminho 823" d="M724.285,373.485h-6.3a.736.736,0,0,0-.736.736v6.3a.734.734,0,0,0,.736.736h6.3a.736.736,0,0,0,.736-.736v-6.3A.738.738,0,0,0,724.285,373.485Z" transform="translate(-563.705 -290.305)" fill="#e6e6e6"/>
    <path id="Caminho_824" data-name="Caminho 824" d="M724.285,411.435h-6.3a.734.734,0,0,0-.736.736v6.3a.735.735,0,0,0,.736.736h6.3a.737.737,0,0,0,.736-.736v-6.3A.736.736,0,0,0,724.285,411.435Z" transform="translate(-563.705 -317.515)" fill="#ff4500"/>
    <path id="Caminho_825" data-name="Caminho 825" d="M771.045,259.635h-6.3a.736.736,0,0,0-.733.736v6.3a.733.733,0,0,0,.733.733h6.3a.736.736,0,0,0,.736-.733v-6.3A.738.738,0,0,0,771.045,259.635Z" transform="translate(-597.231 -208.677)" fill="#fff"/>
    <path id="Caminho_826" data-name="Caminho 826" d="M771.045,297.585h-6.3a.736.736,0,0,0-.733.736v6.3a.733.733,0,0,0,.733.733h6.3a.736.736,0,0,0,.736-.733v-6.3A.738.738,0,0,0,771.045,297.585Z" transform="translate(-597.231 -235.886)" fill="#fff"/>
    <path id="Caminho_827" data-name="Caminho 827" d="M771.045,335.535h-6.3a.736.736,0,0,0-.733.736v6.3a.734.734,0,0,0,.733.736h6.3a.736.736,0,0,0,.736-.736v-6.3A.738.738,0,0,0,771.045,335.535Z" transform="translate(-597.231 -263.096)" fill="#fff"/>
    <path id="Caminho_828" data-name="Caminho 828" d="M771.045,373.485h-6.3a.736.736,0,0,0-.733.736v6.3a.734.734,0,0,0,.733.736h6.3a.736.736,0,0,0,.736-.736v-6.3A.738.738,0,0,0,771.045,373.485Z" transform="translate(-597.231 -290.305)" fill="#ff4500"/>
    <path id="Caminho_829" data-name="Caminho 829" d="M771.045,411.435h-6.3a.734.734,0,0,0-.733.736v6.3a.734.734,0,0,0,.733.736h6.3a.736.736,0,0,0,.736-.736v-6.3A.736.736,0,0,0,771.045,411.435Z" transform="translate(-597.231 -317.515)" fill="#e6e6e6"/>
    <path id="Caminho_830" data-name="Caminho 830" d="M817.8,259.635h-6.3a.736.736,0,0,0-.733.736v6.3a.733.733,0,0,0,.733.733h6.3a.736.736,0,0,0,.736-.733v-6.3A.738.738,0,0,0,817.8,259.635Z" transform="translate(-630.757 -208.677)" fill="#fff"/>
    <path id="Caminho_831" data-name="Caminho 831" d="M817.8,297.585h-6.3a.736.736,0,0,0-.733.736v6.3a.733.733,0,0,0,.733.733h6.3a.736.736,0,0,0,.736-.733v-6.3A.738.738,0,0,0,817.8,297.585Z" transform="translate(-630.757 -235.886)" fill="#fff"/>
    <path id="Caminho_832" data-name="Caminho 832" d="M817.8,335.535h-6.3a.736.736,0,0,0-.733.736v6.3a.734.734,0,0,0,.733.736h6.3a.736.736,0,0,0,.736-.736v-6.3A.738.738,0,0,0,817.8,335.535Z" transform="translate(-630.757 -263.096)" fill="#ff4500"/>
    <path id="Caminho_833" data-name="Caminho 833" d="M817.8,373.485h-6.3a.736.736,0,0,0-.733.736v6.3a.734.734,0,0,0,.733.736h6.3a.736.736,0,0,0,.736-.736v-6.3A.738.738,0,0,0,817.8,373.485Z" transform="translate(-630.757 -290.305)" fill="#e6e6e6"/>
    <path id="Caminho_834" data-name="Caminho 834" d="M817.8,411.435h-6.3a.734.734,0,0,0-.733.736v6.3a.734.734,0,0,0,.733.736h6.3a.736.736,0,0,0,.736-.736v-6.3A.736.736,0,0,0,817.8,411.435Z" transform="translate(-630.757 -317.515)" fill="#fff"/>
    <path id="Caminho_835" data-name="Caminho 835" d="M864.565,259.635h-6.3a.736.736,0,0,0-.733.736v6.3a.733.733,0,0,0,.733.733h6.3a.736.736,0,0,0,.736-.733v-6.3A.738.738,0,0,0,864.565,259.635Z" transform="translate(-664.283 -208.677)" fill="#ff4500"/>
    <path id="Caminho_836" data-name="Caminho 836" d="M864.565,297.585h-6.3a.735.735,0,0,0-.733.736v6.3a.733.733,0,0,0,.733.733h6.3a.736.736,0,0,0,.736-.733v-6.3A.738.738,0,0,0,864.565,297.585Z" transform="translate(-664.283 -235.886)" fill="#ff4500"/>
    <path id="Caminho_837" data-name="Caminho 837" d="M864.565,335.535h-6.3a.736.736,0,0,0-.733.736v6.3a.734.734,0,0,0,.733.736h6.3a.736.736,0,0,0,.736-.736v-6.3A.738.738,0,0,0,864.565,335.535Z" transform="translate(-664.283 -263.096)" fill="#e6e6e6"/>
    <path id="Caminho_838" data-name="Caminho 838" d="M864.565,373.485h-6.3a.736.736,0,0,0-.733.736v6.3a.734.734,0,0,0,.733.736h6.3a.736.736,0,0,0,.736-.736v-6.3A.738.738,0,0,0,864.565,373.485Z" transform="translate(-664.283 -290.305)" fill="#fff"/>
    <path id="Caminho_839" data-name="Caminho 839" d="M864.565,411.435h-6.3a.734.734,0,0,0-.733.736v6.3a.734.734,0,0,0,.733.736h6.3a.736.736,0,0,0,.736-.736v-6.3A.736.736,0,0,0,864.565,411.435Z" transform="translate(-664.283 -317.515)" fill="#ff4500"/>
    <path id="Caminho_840" data-name="Caminho 840" d="M911.325,259.635h-6.3a.735.735,0,0,0-.733.736v6.3a.733.733,0,0,0,.733.733h6.3a.735.735,0,0,0,.736-.733v-6.3A.738.738,0,0,0,911.325,259.635Z" transform="translate(-697.809 -208.677)" fill="#ff4500"/>
    <path id="Caminho_841" data-name="Caminho 841" d="M911.325,297.585h-6.3a.736.736,0,0,0-.733.736v6.3a.733.733,0,0,0,.733.733h6.3a.735.735,0,0,0,.736-.733v-6.3A.738.738,0,0,0,911.325,297.585Z" transform="translate(-697.809 -235.886)" fill="#ff4500"/>
    <path id="Caminho_842" data-name="Caminho 842" d="M911.325,335.535h-6.3a.736.736,0,0,0-.733.736v6.3a.734.734,0,0,0,.733.736h6.3a.736.736,0,0,0,.736-.736v-6.3A.738.738,0,0,0,911.325,335.535Z" transform="translate(-697.809 -263.096)" fill="#e6e6e6"/>
    <path id="Caminho_843" data-name="Caminho 843" d="M911.325,373.485h-6.3a.736.736,0,0,0-.733.736v6.3a.734.734,0,0,0,.733.736h6.3a.736.736,0,0,0,.736-.736v-6.3A.738.738,0,0,0,911.325,373.485Z" transform="translate(-697.809 -290.305)" fill="#ff4500"/>
    <path id="Caminho_844" data-name="Caminho 844" d="M911.325,411.435h-6.3a.734.734,0,0,0-.733.736v6.3a.734.734,0,0,0,.733.736h6.3a.736.736,0,0,0,.736-.736v-6.3A.736.736,0,0,0,911.325,411.435Z" transform="translate(-697.809 -317.515)" fill="#ff4500"/>
    <path id="Caminho_845" data-name="Caminho 845" d="M958.085,259.635h-6.3a.736.736,0,0,0-.733.736v6.3a.733.733,0,0,0,.733.733h6.3a.735.735,0,0,0,.736-.733v-6.3A.738.738,0,0,0,958.085,259.635Z" transform="translate(-731.335 -208.677)" fill="#e6e6e6"/>
    <path id="Caminho_846" data-name="Caminho 846" d="M958.085,297.585h-6.3a.736.736,0,0,0-.733.736v6.3a.733.733,0,0,0,.733.733h6.3a.735.735,0,0,0,.736-.733v-6.3A.738.738,0,0,0,958.085,297.585Z" transform="translate(-731.335 -235.886)" fill="#ff4500"/>
    <path id="Caminho_847" data-name="Caminho 847" d="M958.085,335.535h-6.3a.736.736,0,0,0-.733.736v6.3a.734.734,0,0,0,.733.736h6.3a.736.736,0,0,0,.736-.736v-6.3A.738.738,0,0,0,958.085,335.535Z" transform="translate(-731.335 -263.096)" fill="#ff4500"/>
    <path id="Caminho_848" data-name="Caminho 848" d="M958.085,373.485h-6.3a.736.736,0,0,0-.733.736v6.3a.734.734,0,0,0,.733.736h6.3a.736.736,0,0,0,.736-.736v-6.3A.738.738,0,0,0,958.085,373.485Z" transform="translate(-731.335 -290.305)" fill="#ff4500"/>
    <path id="Caminho_849" data-name="Caminho 849" d="M958.085,411.435h-6.3a.734.734,0,0,0-.733.736v6.3a.734.734,0,0,0,.733.736h6.3a.736.736,0,0,0,.736-.736v-6.3A.736.736,0,0,0,958.085,411.435Z" transform="translate(-731.335 -317.515)" fill="#e6e6e6"/>
    <path id="Caminho_850" data-name="Caminho 850" d="M1004.846,259.635h-6.3a.735.735,0,0,0-.733.736v6.3a.733.733,0,0,0,.733.733h6.3a.736.736,0,0,0,.736-.733v-6.3A.738.738,0,0,0,1004.846,259.635Z" transform="translate(-764.862 -208.677)" fill="#e6e6e6"/>
    <path id="Caminho_851" data-name="Caminho 851" d="M1004.846,297.585h-6.3a.736.736,0,0,0-.733.736v6.3a.733.733,0,0,0,.733.733h6.3a.736.736,0,0,0,.736-.733v-6.3a.738.738,0,0,0-.736-.736Z" transform="translate(-764.862 -235.886)" fill="#e6e6e6"/>
    <path id="Caminho_852" data-name="Caminho 852" d="M1004.846,335.535h-6.3a.736.736,0,0,0-.733.736v6.3a.734.734,0,0,0,.733.736h6.3a.736.736,0,0,0,.736-.736v-6.3A.738.738,0,0,0,1004.846,335.535Z" transform="translate(-764.862 -263.096)" fill="#ff4500"/>
    <path id="Caminho_853" data-name="Caminho 853" d="M1004.846,373.485h-6.3a.736.736,0,0,0-.733.736v6.3a.734.734,0,0,0,.733.736h6.3a.736.736,0,0,0,.736-.736v-6.3a.738.738,0,0,0-.736-.736Z" transform="translate(-764.862 -290.305)" fill="#e6e6e6"/>
    <path id="Caminho_854" data-name="Caminho 854" d="M1004.846,411.435h-6.3a.734.734,0,0,0-.733.736v6.3a.734.734,0,0,0,.733.736h6.3a.736.736,0,0,0,.736-.736v-6.3A.736.736,0,0,0,1004.846,411.435Z" transform="translate(-764.862 -317.515)" fill="#e6e6e6"/>
    <path id="Caminho_855" data-name="Caminho 855" d="M335.65,660h-.175l.15-.02Z" transform="translate(-240.529 -473.193)" fill="#2f2e41"/>
    <circle id="ab6171fa-7d69-4734-b81c-8dff60f9761b" cx="19.336" cy="19.336" r="19.336" transform="translate(60.706 30.683)" fill="#ffb6b6"/>
    <path id="bf427902-b9bf-4946-b5d7-5c1c7e04535e" d="M416.581,168.521s5.057-9.668-6.069-10.547c0,0-9.485-8.6-19.154-1.573,0,0-5.274,0-8.157,5.968,0,0-4.148-1.573-5.059,2.637,0,0-3.035,8.789,0,16.7s4.043,8.789,4.043,8.789-4.987-16.585,7.152-17.463,25.723-8.465,26.734,1.2,2.534,12.05,2.534,12.05S428.214,172.476,416.581,168.521Z" transform="translate(-319.606 -132.678)" fill="#2f2e41"/>
    <path id="Caminho_856" data-name="Caminho 856" d="M421.874,370.427l-.062.328-.7,3.691-4.831,25.528-.286,1.5-.6,3.178-.821,4.336-1.82,9.609-.521,2.754-.2,1.033-.068.362-.541,2.85-.164.86-1.319,9.773-1.152,8.516,3.855,3.855-2.3,2.3-1.508,8.641,0,.02H347.281q-3.736-2.42-7.364-4.99l.507-3.792s1.743-6.773,1.01-7.582-2.332-2.256-2.332-2.256l2.018-4.709.28-.654-.47-9.744-.011-.235-.156-3.212-.02-.413-.031-.62-.6-12.362-.011-.2-.181-3.747-.17-3.563-.074-1.5-.727-15.037-.493-10.211-.43-8.89,1.729-.586,18.5-6.286L365.915,349l15.945.119,7.806.059,13.025,12.079,2.963,1.415.023.011L407.8,363.7l5.389,2.573,5.7,2.723,2.924,1.4Z" transform="translate(-291.812 -272.753)" fill="#cacaca"/>
    <path id="Caminho_857" data-name="Caminho 857" d="M338.284,580.172a8.572,8.572,0,0,1-11.509-6.348l-30.158-4.279L307.1,557.686l27.032,5.881a8.618,8.618,0,0,1,4.152,16.6Z" transform="translate(-262.121 -422.374)" fill="#ffb6b6"/>
    <path id="Caminho_858" data-name="Caminho 858" d="M280.146,438.328a3.827,3.827,0,0,0-2.233-1.378l-12.374-2.573-1.271-.263a5.358,5.358,0,0,1-3.546-2.567,5.423,5.423,0,0,1-.693-2.236,5.348,5.348,0,0,1,.252-2.117l4.288-12.92,2.782-8.383a11.828,11.828,0,0,0,.592-3.127,12.268,12.268,0,0,0-2.567-8.176,12.083,12.083,0,0,0-13.871-3.86c-.071.025-.144.054-.215.082a12.052,12.052,0,0,0-7.163,8.041l-3.023,11-6.235,22.667a16.349,16.349,0,0,0,13.857,20.57l17.822,2.089,8.247.968a3.82,3.82,0,0,0,4.2-3.037,1.386,1.386,0,0,0,.031-.156l.2-1.223,1.678-10.3.017-.1A3.814,3.814,0,0,0,280.146,438.328Z" transform="translate(-217.429 -302.09)" fill="#cacaca"/>
    <path id="Caminho_859" data-name="Caminho 859" d="M494.68,570.768a8.572,8.572,0,0,0,10.5-7.908l29.253-8.489L522.38,544.109l-25.932,9.634a8.618,8.618,0,0,0-1.769,17.024Z" transform="translate(-399.307 -412.639)" fill="#ffb6b6"/>
    <path id="Caminho_860" data-name="Caminho 860" d="M590.691,413.63l-13.913-32.021a12.118,12.118,0,0,0-5.737-6.043,12.27,12.27,0,0,0-2.485-.906c-.133-.034-.266-.065-.4-.091a11.924,11.924,0,0,0-5.513.1,12.117,12.117,0,0,0-7.738,6.15.28.28,0,0,0-.023.04,12.2,12.2,0,0,0-.1,11l.173.345,9.832,19.746a5.349,5.349,0,0,1-2.972,7.412l-.691.249L548.7,424.1a3.82,3.82,0,0,0-2.358,4.752l.031.1,3.481,11.14c.017.051.034.1.054.153a1.989,1.989,0,0,0,.113.28,3.816,3.816,0,0,0,4.474,2.131l6.7-1.769,1.367-.362,17.307-4.571a16.347,16.347,0,0,0,10.817-22.319Z" transform="translate(-441.042 -290.887)" fill="#cacaca"/>
    <path id="Caminho_861" data-name="Caminho 861" d="M219.629,608.285a145.512,145.512,0,0,0,12.948,13.845H360.494a4.654,4.654,0,0,1,4.647,4.65l.184,32.414a100.589,100.589,0,0,0,21.926-13.735q2.785-2.288,5.4-4.775,1.711-1.622,3.34-3.323a100.648,100.648,0,0,0,19.477-29.078Z" transform="translate(-206.922 -458.652)" fill="#3f3d56"/>
    <path id="Caminho_862" data-name="Caminho 862" d="M765.318,711.025q-1.626,1.7-3.34,3.323H734.749v-3.323Z" transform="translate(-576.253 -532.315)" fill="#fff"/>
    <path id="Caminho_863" data-name="Caminho 863" d="M390.861,333.456a1.567,1.567,0,0,0-1.378-.821H296.7a1.572,1.572,0,0,0-1.568,1.571V389.74h95.924V334.206A1.524,1.524,0,0,0,390.861,333.456Z" transform="translate(-261.054 -261.017)" fill="#3f3d56"/>
    <path id="Caminho_864" data-name="Caminho 864" d="M294.832,529.092v6.853A2.163,2.163,0,0,0,297,538.108h35.4v13.525h-.47a.281.281,0,0,0-.281.281v.941a.281.281,0,0,0,.281.281h21.979a.281.281,0,0,0,.281-.281v-.941a.281.281,0,0,0-.281-.281h-.47V538.108h35.4a2.163,2.163,0,0,0,2.163-2.163v-6.853Z" transform="translate(-260.841 -401.872)" fill="#3f3d56"/>
    <circle id="Elipse_50" data-name="Elipse 50" cx="8.86" cy="8.86" r="8.86" transform="translate(72.056 89.83)" fill="#ff4500"/>
    <path id="Caminho_865" data-name="Caminho 865" d="M420.663,197.486h-1.415c0-10.7-10.588-17.709-21.269-17.714a23.319,23.319,0,0,0-4.627.45c-1.715.342-3.5.753-5.244,1.288-6.9,2.114-13.293,6.2-13.293,15.976a22.243,22.243,0,0,0,.719,5.626l-1.37.357a23.735,23.735,0,0,1-.764-5.983c0-8.542,3.507-14.409,9.563-17.907a30.9,30.9,0,0,1,11.522-3.6,27.488,27.488,0,0,1,5.59-.17C412.357,176.69,420.663,186.109,420.663,197.486Z" transform="translate(-317.172 -148.524)" fill="#ff4500"/>
    <path id="Caminho_866" data-name="Caminho 866" d="M527.9,235.049l-.557-4.121a4.5,4.5,0,0,0-5.165-3.838l-.886.122a1.862,1.862,0,0,0-1.6,2.094l1.288,9.493a1.861,1.861,0,0,0,1.5,1.576,1.743,1.743,0,0,0,.345.034,1.837,1.837,0,0,0,.249-.017l.991-.133a4.47,4.47,0,0,0,3.04-1.82c.076-.108.15-.218.218-.331A4.74,4.74,0,0,0,527.9,235.049Z" transform="translate(-422.051 -185.303)" fill="#ff4500"/>
    <path id="Caminho_867" data-name="Caminho 867" d="M520.72,228.275a1.82,1.82,0,0,0-.659.543,1.853,1.853,0,0,0-.365,1.378l1.288,9.493a1.862,1.862,0,0,0,1.5,1.576Z" transform="translate(-422.051 -186.193)" fill="#fff"/>
    <path id="Caminho_868" data-name="Caminho 868" d="M543.732,238.061l-.558-4.121a4.447,4.447,0,0,0-1.415-2.706l1.282,9.444a1.746,1.746,0,0,0,.116.441A4.74,4.74,0,0,0,543.732,238.061Z" transform="translate(-437.883 -188.315)" fill="#3f3d56"/>
    <ellipse id="Elipse_51" data-name="Elipse 51" cx="0.708" cy="1.981" rx="0.708" ry="1.981" transform="translate(100.208 48.884) rotate(-7.726)" fill="#3f3d56"/>
    <ellipse id="Elipse_52" data-name="Elipse 52" cx="0.708" cy="1.981" rx="0.708" ry="1.981" transform="translate(99.359 43.789) rotate(-7.726)" fill="#3f3d56"/>
    <ellipse id="Elipse_53" data-name="Elipse 53" cx="0.708" cy="1.981" rx="0.708" ry="1.981" transform="translate(104.737 45.771) rotate(-7.726)" fill="#3f3d56"/>
    <path id="Caminho_869" data-name="Caminho 869" d="M422.206,179.772a23.315,23.315,0,0,0-4.627.45c-1.715.342-3.5.753-5.244,1.288-2.731-.133-4.741-.841-5.145-1.93a30.9,30.9,0,0,1,11.522-3.6,27.489,27.489,0,0,1,5.59-.17,1.62,1.62,0,0,1,.77,1.081C425.2,177.873,424.08,178.92,422.206,179.772Z" transform="translate(-341.399 -148.524)" fill="#3f3d56"/>
    <path id="Caminho_870" data-name="Caminho 870" d="M375.356,261.015l-2.179-9.06a1.7,1.7,0,0,0-1.381-1.288,1.907,1.907,0,0,0-.283-.023,1.705,1.705,0,0,0-.4.048l-.843.2a4.218,4.218,0,0,0-3.11,5.083l.976,4.064a4.485,4.485,0,0,0,1.511,2.44,3.976,3.976,0,0,0,.385.274,4.191,4.191,0,0,0,3.218.521l.841-.2a1.653,1.653,0,0,0,.614-.286A1.7,1.7,0,0,0,375.356,261.015Z" transform="translate(-312.616 -202.231)" fill="#ff4500"/>
    <ellipse id="Elipse_54" data-name="Elipse 54" cx="0.708" cy="1.981" rx="0.708" ry="1.981" transform="translate(56.556 53.412) rotate(-13.53)" fill="#3f3d56"/>
    <ellipse id="Elipse_55" data-name="Elipse 55" cx="0.708" cy="1.981" rx="0.708" ry="1.981" transform="translate(53.726 54.261) rotate(-13.53)" fill="#3f3d56"/>
    <path id="Caminho_871" data-name="Caminho 871" d="M387.585,260.687l-2.179-9.059a1.849,1.849,0,0,0-1.5-1.392l2.975,12.374A1.843,1.843,0,0,0,387.585,260.687Z" transform="translate(-324.707 -201.937)" fill="#fff"/>
    <path id="Caminho_872" data-name="Caminho 872" d="M367.651,261.4a1.832,1.832,0,0,0-.331-.693,4.167,4.167,0,0,0-.161,2.488l.976,4.064a4.484,4.484,0,0,0,1.511,2.44Z" transform="translate(-312.613 -209.444)" fill="#3f3d56"/>
  </g>
</svg>
